<svg width="44" height="40" viewBox="0 0 44 40" fill="none" xmlns="http://www.w3.org/2000/svg">
<path d="M20 38.0467C20 39.1255 19.1234 40.0099 18.0498 39.9047C16.0923 39.7129 14.1701 39.233 12.3463 38.4776C9.91982 37.4725 7.71504 35.9993 5.85786 34.1421C4.00069 32.285 2.5275 30.0802 1.52241 27.6537C0.766979 25.8299 0.287097 23.9077 0.095305 21.9502C-0.00988344 20.8766 0.874505 20 1.95326 20L18.0467 20C19.1255 20 20 20.8745 20 21.9533L20 38.0467Z" fill="#F2411F"/>
<path d="M23.5955 38.0466C23.5955 39.1254 24.472 40.0098 25.5456 39.9046C27.5032 39.7128 29.4254 39.2329 31.2491 38.4775C33.6756 37.4724 35.8804 35.9992 37.7376 34.142C39.5948 32.2849 41.068 30.0801 42.0731 27.6536C42.8285 25.8298 43.3084 23.9076 43.5002 21.9501C43.6053 20.8765 42.721 19.9999 41.6422 19.9999L25.5487 19.9999C24.47 19.9999 23.5955 20.8744 23.5955 21.9532L23.5955 38.0466Z" fill="#FBBA18"/>
<circle cx="33.7079" cy="8.5392" r="8.08989" fill="#9FC836"/>
<circle cx="9.88762" cy="8.5392" r="8.08989" fill="#3AC8EE"/>
</svg>
