<svg width="171" height="41" viewBox="0 0 171 41" fill="none" xmlns="http://www.w3.org/2000/svg">
<path d="M20 38.5013C20 39.5801 19.1234 40.4645 18.0498 40.3593C16.0923 40.1675 14.1701 39.6876 12.3463 38.9322C9.91982 37.9271 7.71503 36.4539 5.85786 34.5967C4.00069 32.7396 2.5275 30.5348 1.52241 28.1083C0.766979 26.2845 0.287097 24.3623 0.095305 22.4048C-0.00988344 21.3311 0.874505 20.4546 1.95326 20.4546L18.0467 20.4546C19.1255 20.4546 20 21.3291 20 22.4079V38.5013Z" fill="#F2411F"/>
<path d="M23.5955 38.5013C23.5955 39.5801 24.472 40.4645 25.5456 40.3593C27.5032 40.1675 29.4254 39.6876 31.2491 38.9322C33.6756 37.9271 35.8804 36.4539 37.7376 34.5967C39.5948 32.7396 41.068 30.5348 42.0731 28.1083C42.8285 26.2845 43.3084 24.3623 43.5002 22.4048C43.6053 21.3311 42.721 20.4546 41.6422 20.4546L25.5487 20.4546C24.47 20.4546 23.5955 21.3291 23.5955 22.4079V38.5013Z" fill="#FBBA18"/>
<circle cx="33.7079" cy="8.9937" r="8.08989" fill="#9FC836"/>
<circle cx="9.88762" cy="8.9937" r="8.08989" fill="#3AC8EE"/>
<mask id="path-5-outside-1_263_333" maskUnits="userSpaceOnUse" x="102.301" y="23.4897" width="69" height="15" fill="black">
<rect fill="white" x="102.301" y="23.4897" width="69" height="15"/>
<path d="M104.941 36.9912C104.273 37.0752 103.677 36.5674 103.653 35.8944C103.627 35.1546 103.602 34.464 103.579 33.8227C103.544 32.8249 103.512 31.934 103.483 31.15C103.455 30.366 103.43 29.6747 103.408 29.076C103.394 28.4774 103.38 27.9606 103.365 27.5259C103.355 27.1404 103.345 26.7926 103.336 26.4826C103.317 25.8093 103.851 25.2498 104.525 25.238C105.194 25.2263 105.746 25.761 105.756 26.4308L105.781 28.2956C106.017 27.8894 106.284 27.5081 106.583 27.1517C106.883 26.7882 107.207 26.4675 107.556 26.1896C107.905 25.9116 108.276 25.6871 108.668 25.516C109.067 25.345 109.484 25.2452 109.919 25.2167C110.46 25.1811 110.931 25.2274 111.33 25.3557C111.736 25.484 112.082 25.6622 112.367 25.8902C112.652 26.1183 112.887 26.3891 113.073 26.7027C113.258 27.0092 113.404 27.3299 113.511 27.6649C113.618 27.9927 113.693 28.3206 113.735 28.6484C113.785 28.9763 113.817 29.2756 113.832 29.5464C113.874 30.7723 113.885 32.0053 113.864 33.2454C113.848 34.1427 113.831 35.0642 113.812 36.01C113.799 36.6123 113.297 37.0879 112.695 37.0673C112.091 37.0467 111.622 36.5361 111.65 35.9332C111.685 35.1513 111.718 34.3694 111.747 33.5875C111.797 32.44 111.793 31.2819 111.736 30.113C111.736 29.9847 111.725 29.8208 111.704 29.6213C111.69 29.4146 111.651 29.1972 111.587 28.9691C111.53 28.7411 111.448 28.5166 111.341 28.2956C111.234 28.0675 111.095 27.8716 110.924 27.7076C110.753 27.5366 110.542 27.4083 110.293 27.3228C110.051 27.2372 109.766 27.2194 109.438 27.2693C108.875 27.3548 108.301 27.7682 107.717 28.5094C107.139 29.2435 106.516 30.3197 105.846 31.738C105.874 32.8855 105.896 33.8013 105.91 34.4855C105.931 35.1626 105.949 35.6757 105.963 36.0249C105.979 36.4953 105.634 36.9042 105.167 36.9628L104.941 36.9912Z"/>
<path d="M126.266 37.201C125.693 37.1047 125.294 36.5815 125.351 36.0041L125.399 35.5225C124.529 36.0784 123.674 36.4811 122.833 36.7305C121.999 36.98 121.219 37.1047 120.492 37.1047C119.979 37.1047 119.48 37.037 118.995 36.9016C118.518 36.7733 118.094 36.5737 117.723 36.3029C117.359 36.0249 117.064 35.6757 116.836 35.2552C116.615 34.8276 116.504 34.3251 116.504 33.7478C116.504 33.1705 116.59 32.6538 116.761 32.1977C116.932 31.7416 117.167 31.3389 117.466 30.9897C117.766 30.6404 118.119 30.3411 118.525 30.0916C118.931 29.8422 119.366 29.6391 119.829 29.4823C120.299 29.3255 120.791 29.2114 121.304 29.1402C121.817 29.0618 122.327 29.0226 122.833 29.0226C123.303 29.0226 123.742 29.0404 124.148 29.076C124.554 29.1117 124.914 29.158 125.228 29.215C125.135 28.8587 125.021 28.5094 124.886 28.1673C124.75 27.8181 124.576 27.5081 124.362 27.2372C124.155 26.9593 123.899 26.7348 123.592 26.5637C123.286 26.3927 122.919 26.3072 122.491 26.3072C122.213 26.3072 121.896 26.3499 121.54 26.4354C121.183 26.5138 120.791 26.6599 120.364 26.8738C119.936 27.0876 119.469 27.3833 118.963 27.7611C118.697 27.9557 118.422 28.1797 118.137 28.4332C117.696 28.825 117.012 28.7976 116.637 28.3422C116.304 27.9372 116.34 27.3398 116.741 27.0017C117.177 26.6341 117.6 26.317 118.012 26.0506C118.639 25.6443 119.227 25.3272 119.776 25.0991C120.331 24.8639 120.845 24.7036 121.315 24.618C121.793 24.5325 122.22 24.4897 122.598 24.4897C123.254 24.4897 123.838 24.6038 124.351 24.8318C124.864 25.0528 125.313 25.3593 125.698 25.7512C126.09 26.1361 126.418 26.5922 126.682 27.1196C126.953 27.6399 127.173 28.203 127.345 28.8088C127.516 29.4074 127.637 30.0311 127.708 30.6796C127.786 31.3282 127.826 31.9732 127.826 32.6146C127.826 33.2988 127.786 34.0329 127.708 34.8169C127.661 35.2867 127.599 35.782 127.521 36.3029C127.432 36.902 126.863 37.3016 126.266 37.201ZM125.548 33.1385C125.563 32.7821 125.573 32.4293 125.581 32.0801C125.588 31.7309 125.57 31.3674 125.527 30.9897C125.178 30.8828 124.811 30.7972 124.426 30.7331C124.041 30.6689 123.656 30.6369 123.271 30.6369C122.63 30.6369 122.006 30.7117 121.401 30.8614C120.802 31.011 120.285 31.2284 119.85 31.5135C119.416 31.7986 119.088 32.1478 118.867 32.5612C118.653 32.9746 118.61 33.4449 118.739 33.9723C118.838 34.4 119.031 34.6993 119.316 34.8704C119.608 35.0414 119.957 35.1269 120.364 35.1269C120.777 35.1269 121.222 35.0592 121.7 34.9238C122.185 34.7813 122.662 34.6102 123.132 34.4107C123.61 34.204 124.059 33.9866 124.479 33.7585C124.9 33.5305 125.256 33.3238 125.548 33.1385Z"/>
<path d="M139.501 30.0157C139.083 30.1728 138.645 29.865 138.548 29.4288C138.498 29.1722 138.431 28.9513 138.345 28.766C138.267 28.5807 138.174 28.4275 138.067 28.3063C137.967 28.1851 137.864 28.0854 137.757 28.007C137.508 27.8288 137.226 27.7433 136.913 27.7504C136.713 27.7789 136.499 27.8644 136.271 28.007C136.05 28.1424 135.822 28.3206 135.587 28.5415C135.352 28.7553 135.113 29.0012 134.871 29.2792C134.636 29.55 134.407 29.8315 134.187 30.1237C133.966 30.4088 133.755 30.6939 133.556 30.979C133.356 31.264 133.178 31.5242 133.021 31.7594C133.028 32.2939 133.039 32.8213 133.053 33.3416C133.068 33.8547 133.078 34.3358 133.085 34.7848C133.1 35.2267 133.114 35.6294 133.128 35.9929C133.157 36.4755 132.81 36.9068 132.331 36.967L132.111 36.9946C131.457 37.0767 130.874 36.5799 130.851 35.9213C130.824 35.1713 130.8 34.4717 130.776 33.8227C130.741 32.8249 130.709 31.934 130.68 31.15C130.651 30.366 130.627 29.6747 130.605 29.076C130.591 28.4774 130.577 27.9606 130.562 27.5259C130.552 27.141 130.542 26.7938 130.533 26.4841C130.514 25.81 131.049 25.2498 131.723 25.238C132.393 25.2262 132.945 25.7598 132.946 26.4293C132.946 26.4705 132.946 26.5117 132.946 26.553C132.954 27.002 132.961 27.4154 132.968 27.7932C132.975 28.235 132.978 28.6662 132.978 29.0867C133.185 28.7589 133.435 28.399 133.727 28.007C134.026 27.615 134.361 27.2444 134.732 26.8951C135.109 26.5459 135.519 26.243 135.961 25.9864C136.41 25.7227 136.888 25.5588 137.394 25.4947C137.964 25.4662 138.484 25.5873 138.955 25.8581C139.154 25.9722 139.35 26.1254 139.543 26.3178C139.742 26.5032 139.924 26.7455 140.088 27.0448C140.259 27.337 140.401 27.6898 140.515 28.1032C140.573 28.307 140.621 28.5296 140.66 28.7711C140.734 29.2277 140.453 29.6583 140.02 29.821L139.501 30.0157Z"/>
<path d="M143.742 25.914C144.375 25.8895 144.898 26.4035 144.884 27.0371C144.871 27.6149 144.858 28.1627 144.845 28.6805C144.831 29.5286 144.817 30.3019 144.802 31.0003C144.788 31.6988 144.774 32.326 144.76 32.8819C144.752 33.4307 144.745 33.9118 144.738 34.3251C144.728 34.7819 144.721 35.1934 144.715 35.5595C144.707 36.159 144.22 36.645 143.62 36.645C143.013 36.645 142.524 36.1467 142.536 35.5393C142.545 35.0376 142.556 34.4903 142.568 33.8975C142.582 32.9852 142.6 31.8699 142.621 30.5513C142.644 29.5029 142.665 28.3194 142.683 27.0006C142.691 26.4145 143.156 25.9366 143.742 25.914Z"/>
<path d="M153.12 35.3728C153.497 35.3728 153.872 35.3158 154.242 35.2018C154.613 35.0806 154.955 34.9096 155.268 34.6886C155.582 34.4606 155.853 34.179 156.081 33.8441C156.138 33.7626 156.192 33.6779 156.241 33.5901C156.511 33.1135 157.019 32.7645 157.555 32.873C158.145 32.9922 158.511 33.6007 158.24 34.1385C158.113 34.3903 157.971 34.6307 157.813 34.8597C157.449 35.3871 157.025 35.8396 156.541 36.2174C156.056 36.5951 155.521 36.8873 154.937 37.094C154.36 37.3007 153.754 37.404 153.12 37.404C152.179 37.404 151.345 37.2615 150.618 36.9764C149.891 36.6913 149.278 36.2887 148.779 35.7684C148.28 35.2481 147.899 34.6209 147.635 33.8868C147.379 33.1527 147.251 32.3331 147.251 31.428C147.251 30.5371 147.4 29.7068 147.7 28.9371C148.006 28.1602 148.423 27.4867 148.95 26.9165C149.478 26.3464 150.098 25.8973 150.81 25.5695C151.523 25.2417 152.293 25.0777 153.12 25.0777C153.861 25.0777 154.559 25.2238 155.215 25.516C155.871 25.8011 156.452 26.2002 156.958 26.7134C157.464 27.2194 157.881 27.8181 158.208 28.5094C158.369 28.8479 158.5 29.2001 158.603 29.566C158.785 30.2179 158.3 30.8332 157.631 30.9329L149.57 32.1336C149.62 32.6396 149.745 33.0957 149.945 33.502C150.144 33.9011 150.397 34.2396 150.704 34.5176C151.017 34.7955 151.377 35.0093 151.783 35.159C152.197 35.3015 152.642 35.3728 153.12 35.3728ZM156.07 29.3754L156.006 29.1722C155.735 28.4667 155.361 27.9143 154.884 27.5152C154.413 27.1161 153.825 26.9165 153.12 26.9165C152.82 26.9165 152.492 26.97 152.136 27.0769C151.78 27.1767 151.434 27.3513 151.099 27.6007C150.764 27.8502 150.461 28.1851 150.19 28.6056C149.927 29.019 149.741 29.5357 149.635 30.1558L156.07 29.3754Z"/>
<path d="M170.802 34.0151C170.802 34.6922 170.663 35.2624 170.385 35.7256C170.114 36.1817 169.747 36.5524 169.284 36.8374C168.828 37.1296 168.3 37.3435 167.702 37.4789C167.11 37.6214 166.494 37.7069 165.852 37.7355C165.197 37.7283 164.534 37.6606 163.864 37.5323C163.579 37.4824 163.276 37.4112 162.955 37.3185C162.641 37.233 162.321 37.1261 161.993 36.9978C161.665 36.8695 161.337 36.7163 161.009 36.5381C160.959 36.5108 160.909 36.4828 160.86 36.4542C160.39 36.1827 160.291 35.5693 160.583 35.1117C160.878 34.649 161.478 34.4918 161.972 34.7325C162.082 34.7861 162.192 34.8392 162.303 34.8917C162.716 35.0842 163.137 35.2552 163.564 35.4049C163.992 35.5474 164.43 35.6615 164.879 35.747C165.328 35.8325 165.792 35.8753 166.269 35.8753C166.661 35.8753 166.993 35.8396 167.263 35.7684C167.534 35.69 167.755 35.5973 167.926 35.4904C168.104 35.3764 168.24 35.2517 168.332 35.1162C168.432 34.9737 168.504 34.8383 168.546 34.71C168.582 34.596 168.596 34.4712 168.589 34.3358C168.582 34.1933 168.543 34.0507 168.471 33.9082C168.407 33.7657 168.304 33.6267 168.161 33.4913C168.026 33.3487 167.844 33.224 167.616 33.1171C167.388 33.0031 167.11 32.9104 166.782 32.8391C166.454 32.7679 166.066 32.7215 165.617 32.7002C164.976 32.6717 164.356 32.6075 163.757 32.5077C163.165 32.4008 162.634 32.2369 162.164 32.016C161.701 31.795 161.316 31.5064 161.009 31.15C160.71 30.7865 160.528 30.334 160.464 29.7923C160.414 29.2792 160.446 28.8123 160.56 28.3918C160.682 27.9642 160.86 27.5829 161.095 27.2479C161.337 26.913 161.633 26.6207 161.982 26.3713C162.331 26.1147 162.713 25.9045 163.126 25.7406C163.539 25.5695 163.974 25.4448 164.43 25.3664C164.894 25.2809 165.36 25.2381 165.831 25.2381C166.109 25.2381 166.437 25.2523 166.814 25.2809C167.192 25.3094 167.588 25.3664 168.001 25.4519C168.414 25.5374 168.831 25.6622 169.252 25.8261C169.408 25.8844 169.561 25.9501 169.709 26.0232C170.154 26.2424 170.306 26.7788 170.131 27.243C169.897 27.8638 169.174 28.1259 168.549 27.9049C168.48 27.8804 168.411 27.8575 168.343 27.8359C167.923 27.6934 167.548 27.5829 167.221 27.5045C166.836 27.419 166.476 27.362 166.141 27.3335C165.022 27.2693 164.149 27.3869 163.522 27.6862C162.902 27.9856 162.592 28.4382 162.592 29.044C162.592 29.4716 162.709 29.7852 162.944 29.9847C163.18 30.1772 163.5 30.3161 163.907 30.4017C164.313 30.4872 164.787 30.5442 165.328 30.5727C165.87 30.6012 166.447 30.6618 167.06 30.7545C167.759 30.8614 168.347 31.0217 168.824 31.2355C169.302 31.4494 169.687 31.6988 169.979 31.9839C170.271 32.269 170.481 32.5861 170.61 32.9354C170.738 33.2775 170.802 33.6374 170.802 34.0151Z"/>
</mask>
<path d="M104.941 36.9912C104.273 37.0752 103.677 36.5674 103.653 35.8944C103.627 35.1546 103.602 34.464 103.579 33.8227C103.544 32.8249 103.512 31.934 103.483 31.15C103.455 30.366 103.43 29.6747 103.408 29.076C103.394 28.4774 103.38 27.9606 103.365 27.5259C103.355 27.1404 103.345 26.7926 103.336 26.4826C103.317 25.8093 103.851 25.2498 104.525 25.238C105.194 25.2263 105.746 25.761 105.756 26.4308L105.781 28.2956C106.017 27.8894 106.284 27.5081 106.583 27.1517C106.883 26.7882 107.207 26.4675 107.556 26.1896C107.905 25.9116 108.276 25.6871 108.668 25.516C109.067 25.345 109.484 25.2452 109.919 25.2167C110.46 25.1811 110.931 25.2274 111.33 25.3557C111.736 25.484 112.082 25.6622 112.367 25.8902C112.652 26.1183 112.887 26.3891 113.073 26.7027C113.258 27.0092 113.404 27.3299 113.511 27.6649C113.618 27.9927 113.693 28.3206 113.735 28.6484C113.785 28.9763 113.817 29.2756 113.832 29.5464C113.874 30.7723 113.885 32.0053 113.864 33.2454C113.848 34.1427 113.831 35.0642 113.812 36.01C113.799 36.6123 113.297 37.0879 112.695 37.0673C112.091 37.0467 111.622 36.5361 111.65 35.9332C111.685 35.1513 111.718 34.3694 111.747 33.5875C111.797 32.44 111.793 31.2819 111.736 30.113C111.736 29.9847 111.725 29.8208 111.704 29.6213C111.69 29.4146 111.651 29.1972 111.587 28.9691C111.53 28.7411 111.448 28.5166 111.341 28.2956C111.234 28.0675 111.095 27.8716 110.924 27.7076C110.753 27.5366 110.542 27.4083 110.293 27.3228C110.051 27.2372 109.766 27.2194 109.438 27.2693C108.875 27.3548 108.301 27.7682 107.717 28.5094C107.139 29.2435 106.516 30.3197 105.846 31.738C105.874 32.8855 105.896 33.8013 105.91 34.4855C105.931 35.1626 105.949 35.6757 105.963 36.0249C105.979 36.4953 105.634 36.9042 105.167 36.9628L104.941 36.9912Z" fill="white"/>
<path d="M126.266 37.201C125.693 37.1047 125.294 36.5815 125.351 36.0041L125.399 35.5225C124.529 36.0784 123.674 36.4811 122.833 36.7305C121.999 36.98 121.219 37.1047 120.492 37.1047C119.979 37.1047 119.48 37.037 118.995 36.9016C118.518 36.7733 118.094 36.5737 117.723 36.3029C117.359 36.0249 117.064 35.6757 116.836 35.2552C116.615 34.8276 116.504 34.3251 116.504 33.7478C116.504 33.1705 116.59 32.6538 116.761 32.1977C116.932 31.7416 117.167 31.3389 117.466 30.9897C117.766 30.6404 118.119 30.3411 118.525 30.0916C118.931 29.8422 119.366 29.6391 119.829 29.4823C120.299 29.3255 120.791 29.2114 121.304 29.1402C121.817 29.0618 122.327 29.0226 122.833 29.0226C123.303 29.0226 123.742 29.0404 124.148 29.076C124.554 29.1117 124.914 29.158 125.228 29.215C125.135 28.8587 125.021 28.5094 124.886 28.1673C124.75 27.8181 124.576 27.5081 124.362 27.2372C124.155 26.9593 123.899 26.7348 123.592 26.5637C123.286 26.3927 122.919 26.3072 122.491 26.3072C122.213 26.3072 121.896 26.3499 121.54 26.4354C121.183 26.5138 120.791 26.6599 120.364 26.8738C119.936 27.0876 119.469 27.3833 118.963 27.7611C118.697 27.9557 118.422 28.1797 118.137 28.4332C117.696 28.825 117.012 28.7976 116.637 28.3422C116.304 27.9372 116.34 27.3398 116.741 27.0017C117.177 26.6341 117.6 26.317 118.012 26.0506C118.639 25.6443 119.227 25.3272 119.776 25.0991C120.331 24.8639 120.845 24.7036 121.315 24.618C121.793 24.5325 122.22 24.4897 122.598 24.4897C123.254 24.4897 123.838 24.6038 124.351 24.8318C124.864 25.0528 125.313 25.3593 125.698 25.7512C126.09 26.1361 126.418 26.5922 126.682 27.1196C126.953 27.6399 127.173 28.203 127.345 28.8088C127.516 29.4074 127.637 30.0311 127.708 30.6796C127.786 31.3282 127.826 31.9732 127.826 32.6146C127.826 33.2988 127.786 34.0329 127.708 34.8169C127.661 35.2867 127.599 35.782 127.521 36.3029C127.432 36.902 126.863 37.3016 126.266 37.201ZM125.548 33.1385C125.563 32.7821 125.573 32.4293 125.581 32.0801C125.588 31.7309 125.57 31.3674 125.527 30.9897C125.178 30.8828 124.811 30.7972 124.426 30.7331C124.041 30.6689 123.656 30.6369 123.271 30.6369C122.63 30.6369 122.006 30.7117 121.401 30.8614C120.802 31.011 120.285 31.2284 119.85 31.5135C119.416 31.7986 119.088 32.1478 118.867 32.5612C118.653 32.9746 118.61 33.4449 118.739 33.9723C118.838 34.4 119.031 34.6993 119.316 34.8704C119.608 35.0414 119.957 35.1269 120.364 35.1269C120.777 35.1269 121.222 35.0592 121.7 34.9238C122.185 34.7813 122.662 34.6102 123.132 34.4107C123.61 34.204 124.059 33.9866 124.479 33.7585C124.9 33.5305 125.256 33.3238 125.548 33.1385Z" fill="white"/>
<path d="M139.501 30.0157C139.083 30.1728 138.645 29.865 138.548 29.4288C138.498 29.1722 138.431 28.9513 138.345 28.766C138.267 28.5807 138.174 28.4275 138.067 28.3063C137.967 28.1851 137.864 28.0854 137.757 28.007C137.508 27.8288 137.226 27.7433 136.913 27.7504C136.713 27.7789 136.499 27.8644 136.271 28.007C136.05 28.1424 135.822 28.3206 135.587 28.5415C135.352 28.7553 135.113 29.0012 134.871 29.2792C134.636 29.55 134.407 29.8315 134.187 30.1237C133.966 30.4088 133.755 30.6939 133.556 30.979C133.356 31.264 133.178 31.5242 133.021 31.7594C133.028 32.2939 133.039 32.8213 133.053 33.3416C133.068 33.8547 133.078 34.3358 133.085 34.7848C133.1 35.2267 133.114 35.6294 133.128 35.9929C133.157 36.4755 132.81 36.9068 132.331 36.967L132.111 36.9946C131.457 37.0767 130.874 36.5799 130.851 35.9213C130.824 35.1713 130.8 34.4717 130.776 33.8227C130.741 32.8249 130.709 31.934 130.68 31.15C130.651 30.366 130.627 29.6747 130.605 29.076C130.591 28.4774 130.577 27.9606 130.562 27.5259C130.552 27.141 130.542 26.7938 130.533 26.4841C130.514 25.81 131.049 25.2498 131.723 25.238C132.393 25.2262 132.945 25.7598 132.946 26.4293C132.946 26.4705 132.946 26.5117 132.946 26.553C132.954 27.002 132.961 27.4154 132.968 27.7932C132.975 28.235 132.978 28.6662 132.978 29.0867C133.185 28.7589 133.435 28.399 133.727 28.007C134.026 27.615 134.361 27.2444 134.732 26.8951C135.109 26.5459 135.519 26.243 135.961 25.9864C136.41 25.7227 136.888 25.5588 137.394 25.4947C137.964 25.4662 138.484 25.5873 138.955 25.8581C139.154 25.9722 139.35 26.1254 139.543 26.3178C139.742 26.5032 139.924 26.7455 140.088 27.0448C140.259 27.337 140.401 27.6898 140.515 28.1032C140.573 28.307 140.621 28.5296 140.66 28.7711C140.734 29.2277 140.453 29.6583 140.02 29.821L139.501 30.0157Z" fill="white"/>
<path d="M143.742 25.914C144.375 25.8895 144.898 26.4035 144.884 27.0371C144.871 27.6149 144.858 28.1627 144.845 28.6805C144.831 29.5286 144.817 30.3019 144.802 31.0003C144.788 31.6988 144.774 32.326 144.76 32.8819C144.752 33.4307 144.745 33.9118 144.738 34.3251C144.728 34.7819 144.721 35.1934 144.715 35.5595C144.707 36.159 144.22 36.645 143.62 36.645C143.013 36.645 142.524 36.1467 142.536 35.5393C142.545 35.0376 142.556 34.4903 142.568 33.8975C142.582 32.9852 142.6 31.8699 142.621 30.5513C142.644 29.5029 142.665 28.3194 142.683 27.0006C142.691 26.4145 143.156 25.9366 143.742 25.914Z" fill="white"/>
<path d="M153.12 35.3728C153.497 35.3728 153.872 35.3158 154.242 35.2018C154.613 35.0806 154.955 34.9096 155.268 34.6886C155.582 34.4606 155.853 34.179 156.081 33.8441C156.138 33.7626 156.192 33.6779 156.241 33.5901C156.511 33.1135 157.019 32.7645 157.555 32.873C158.145 32.9922 158.511 33.6007 158.24 34.1385C158.113 34.3903 157.971 34.6307 157.813 34.8597C157.449 35.3871 157.025 35.8396 156.541 36.2174C156.056 36.5951 155.521 36.8873 154.937 37.094C154.36 37.3007 153.754 37.404 153.12 37.404C152.179 37.404 151.345 37.2615 150.618 36.9764C149.891 36.6913 149.278 36.2887 148.779 35.7684C148.28 35.2481 147.899 34.6209 147.635 33.8868C147.379 33.1527 147.251 32.3331 147.251 31.428C147.251 30.5371 147.4 29.7068 147.7 28.9371C148.006 28.1602 148.423 27.4867 148.95 26.9165C149.478 26.3464 150.098 25.8973 150.81 25.5695C151.523 25.2417 152.293 25.0777 153.12 25.0777C153.861 25.0777 154.559 25.2238 155.215 25.516C155.871 25.8011 156.452 26.2002 156.958 26.7134C157.464 27.2194 157.881 27.8181 158.208 28.5094C158.369 28.8479 158.5 29.2001 158.603 29.566C158.785 30.2179 158.3 30.8332 157.631 30.9329L149.57 32.1336C149.62 32.6396 149.745 33.0957 149.945 33.502C150.144 33.9011 150.397 34.2396 150.704 34.5176C151.017 34.7955 151.377 35.0093 151.783 35.159C152.197 35.3015 152.642 35.3728 153.12 35.3728ZM156.07 29.3754L156.006 29.1722C155.735 28.4667 155.361 27.9143 154.884 27.5152C154.413 27.1161 153.825 26.9165 153.12 26.9165C152.82 26.9165 152.492 26.97 152.136 27.0769C151.78 27.1767 151.434 27.3513 151.099 27.6007C150.764 27.8502 150.461 28.1851 150.19 28.6056C149.927 29.019 149.741 29.5357 149.635 30.1558L156.07 29.3754Z" fill="white"/>
<path d="M170.802 34.0151C170.802 34.6922 170.663 35.2624 170.385 35.7256C170.114 36.1817 169.747 36.5524 169.284 36.8374C168.828 37.1296 168.3 37.3435 167.702 37.4789C167.11 37.6214 166.494 37.7069 165.852 37.7355C165.197 37.7283 164.534 37.6606 163.864 37.5323C163.579 37.4824 163.276 37.4112 162.955 37.3185C162.641 37.233 162.321 37.1261 161.993 36.9978C161.665 36.8695 161.337 36.7163 161.009 36.5381C160.959 36.5108 160.909 36.4828 160.86 36.4542C160.39 36.1827 160.291 35.5693 160.583 35.1117C160.878 34.649 161.478 34.4918 161.972 34.7325C162.082 34.7861 162.192 34.8392 162.303 34.8917C162.716 35.0842 163.137 35.2552 163.564 35.4049C163.992 35.5474 164.43 35.6615 164.879 35.747C165.328 35.8325 165.792 35.8753 166.269 35.8753C166.661 35.8753 166.993 35.8396 167.263 35.7684C167.534 35.69 167.755 35.5973 167.926 35.4904C168.104 35.3764 168.24 35.2517 168.332 35.1162C168.432 34.9737 168.504 34.8383 168.546 34.71C168.582 34.596 168.596 34.4712 168.589 34.3358C168.582 34.1933 168.543 34.0507 168.471 33.9082C168.407 33.7657 168.304 33.6267 168.161 33.4913C168.026 33.3487 167.844 33.224 167.616 33.1171C167.388 33.0031 167.11 32.9104 166.782 32.8391C166.454 32.7679 166.066 32.7215 165.617 32.7002C164.976 32.6717 164.356 32.6075 163.757 32.5077C163.165 32.4008 162.634 32.2369 162.164 32.016C161.701 31.795 161.316 31.5064 161.009 31.15C160.71 30.7865 160.528 30.334 160.464 29.7923C160.414 29.2792 160.446 28.8123 160.56 28.3918C160.682 27.9642 160.86 27.5829 161.095 27.2479C161.337 26.913 161.633 26.6207 161.982 26.3713C162.331 26.1147 162.713 25.9045 163.126 25.7406C163.539 25.5695 163.974 25.4448 164.43 25.3664C164.894 25.2809 165.36 25.2381 165.831 25.2381C166.109 25.2381 166.437 25.2523 166.814 25.2809C167.192 25.3094 167.588 25.3664 168.001 25.4519C168.414 25.5374 168.831 25.6622 169.252 25.8261C169.408 25.8844 169.561 25.9501 169.709 26.0232C170.154 26.2424 170.306 26.7788 170.131 27.243C169.897 27.8638 169.174 28.1259 168.549 27.9049C168.48 27.8804 168.411 27.8575 168.343 27.8359C167.923 27.6934 167.548 27.5829 167.221 27.5045C166.836 27.419 166.476 27.362 166.141 27.3335C165.022 27.2693 164.149 27.3869 163.522 27.6862C162.902 27.9856 162.592 28.4382 162.592 29.044C162.592 29.4716 162.709 29.7852 162.944 29.9847C163.18 30.1772 163.5 30.3161 163.907 30.4017C164.313 30.4872 164.787 30.5442 165.328 30.5727C165.87 30.6012 166.447 30.6618 167.06 30.7545C167.759 30.8614 168.347 31.0217 168.824 31.2355C169.302 31.4494 169.687 31.6988 169.979 31.9839C170.271 32.269 170.481 32.5861 170.61 32.9354C170.738 33.2775 170.802 33.6374 170.802 34.0151Z" fill="white"/>
<path d="M104.941 36.9912C104.273 37.0752 103.677 36.5674 103.653 35.8944C103.627 35.1546 103.602 34.464 103.579 33.8227C103.544 32.8249 103.512 31.934 103.483 31.15C103.455 30.366 103.43 29.6747 103.408 29.076C103.394 28.4774 103.38 27.9606 103.365 27.5259C103.355 27.1404 103.345 26.7926 103.336 26.4826C103.317 25.8093 103.851 25.2498 104.525 25.238C105.194 25.2263 105.746 25.761 105.756 26.4308L105.781 28.2956C106.017 27.8894 106.284 27.5081 106.583 27.1517C106.883 26.7882 107.207 26.4675 107.556 26.1896C107.905 25.9116 108.276 25.6871 108.668 25.516C109.067 25.345 109.484 25.2452 109.919 25.2167C110.46 25.1811 110.931 25.2274 111.33 25.3557C111.736 25.484 112.082 25.6622 112.367 25.8902C112.652 26.1183 112.887 26.3891 113.073 26.7027C113.258 27.0092 113.404 27.3299 113.511 27.6649C113.618 27.9927 113.693 28.3206 113.735 28.6484C113.785 28.9763 113.817 29.2756 113.832 29.5464C113.874 30.7723 113.885 32.0053 113.864 33.2454C113.848 34.1427 113.831 35.0642 113.812 36.01C113.799 36.6123 113.297 37.0879 112.695 37.0673C112.091 37.0467 111.622 36.5361 111.65 35.9332C111.685 35.1513 111.718 34.3694 111.747 33.5875C111.797 32.44 111.793 31.2819 111.736 30.113C111.736 29.9847 111.725 29.8208 111.704 29.6213C111.69 29.4146 111.651 29.1972 111.587 28.9691C111.53 28.7411 111.448 28.5166 111.341 28.2956C111.234 28.0675 111.095 27.8716 110.924 27.7076C110.753 27.5366 110.542 27.4083 110.293 27.3228C110.051 27.2372 109.766 27.2194 109.438 27.2693C108.875 27.3548 108.301 27.7682 107.717 28.5094C107.139 29.2435 106.516 30.3197 105.846 31.738C105.874 32.8855 105.896 33.8013 105.91 34.4855C105.931 35.1626 105.949 35.6757 105.963 36.0249C105.979 36.4953 105.634 36.9042 105.167 36.9628L104.941 36.9912Z" stroke="white" stroke-width="0.217029" mask="url(#path-5-outside-1_263_333)"/>
<path d="M126.266 37.201C125.693 37.1047 125.294 36.5815 125.351 36.0041L125.399 35.5225C124.529 36.0784 123.674 36.4811 122.833 36.7305C121.999 36.98 121.219 37.1047 120.492 37.1047C119.979 37.1047 119.48 37.037 118.995 36.9016C118.518 36.7733 118.094 36.5737 117.723 36.3029C117.359 36.0249 117.064 35.6757 116.836 35.2552C116.615 34.8276 116.504 34.3251 116.504 33.7478C116.504 33.1705 116.59 32.6538 116.761 32.1977C116.932 31.7416 117.167 31.3389 117.466 30.9897C117.766 30.6404 118.119 30.3411 118.525 30.0916C118.931 29.8422 119.366 29.6391 119.829 29.4823C120.299 29.3255 120.791 29.2114 121.304 29.1402C121.817 29.0618 122.327 29.0226 122.833 29.0226C123.303 29.0226 123.742 29.0404 124.148 29.076C124.554 29.1117 124.914 29.158 125.228 29.215C125.135 28.8587 125.021 28.5094 124.886 28.1673C124.75 27.8181 124.576 27.5081 124.362 27.2372C124.155 26.9593 123.899 26.7348 123.592 26.5637C123.286 26.3927 122.919 26.3072 122.491 26.3072C122.213 26.3072 121.896 26.3499 121.54 26.4354C121.183 26.5138 120.791 26.6599 120.364 26.8738C119.936 27.0876 119.469 27.3833 118.963 27.7611C118.697 27.9557 118.422 28.1797 118.137 28.4332C117.696 28.825 117.012 28.7976 116.637 28.3422C116.304 27.9372 116.34 27.3398 116.741 27.0017C117.177 26.6341 117.6 26.317 118.012 26.0506C118.639 25.6443 119.227 25.3272 119.776 25.0991C120.331 24.8639 120.845 24.7036 121.315 24.618C121.793 24.5325 122.22 24.4897 122.598 24.4897C123.254 24.4897 123.838 24.6038 124.351 24.8318C124.864 25.0528 125.313 25.3593 125.698 25.7512C126.09 26.1361 126.418 26.5922 126.682 27.1196C126.953 27.6399 127.173 28.203 127.345 28.8088C127.516 29.4074 127.637 30.0311 127.708 30.6796C127.786 31.3282 127.826 31.9732 127.826 32.6146C127.826 33.2988 127.786 34.0329 127.708 34.8169C127.661 35.2867 127.599 35.782 127.521 36.3029C127.432 36.902 126.863 37.3016 126.266 37.201ZM125.548 33.1385C125.563 32.7821 125.573 32.4293 125.581 32.0801C125.588 31.7309 125.57 31.3674 125.527 30.9897C125.178 30.8828 124.811 30.7972 124.426 30.7331C124.041 30.6689 123.656 30.6369 123.271 30.6369C122.63 30.6369 122.006 30.7117 121.401 30.8614C120.802 31.011 120.285 31.2284 119.85 31.5135C119.416 31.7986 119.088 32.1478 118.867 32.5612C118.653 32.9746 118.61 33.4449 118.739 33.9723C118.838 34.4 119.031 34.6993 119.316 34.8704C119.608 35.0414 119.957 35.1269 120.364 35.1269C120.777 35.1269 121.222 35.0592 121.7 34.9238C122.185 34.7813 122.662 34.6102 123.132 34.4107C123.61 34.204 124.059 33.9866 124.479 33.7585C124.9 33.5305 125.256 33.3238 125.548 33.1385Z" stroke="white" stroke-width="0.217029" mask="url(#path-5-outside-1_263_333)"/>
<path d="M139.501 30.0157C139.083 30.1728 138.645 29.865 138.548 29.4288C138.498 29.1722 138.431 28.9513 138.345 28.766C138.267 28.5807 138.174 28.4275 138.067 28.3063C137.967 28.1851 137.864 28.0854 137.757 28.007C137.508 27.8288 137.226 27.7433 136.913 27.7504C136.713 27.7789 136.499 27.8644 136.271 28.007C136.05 28.1424 135.822 28.3206 135.587 28.5415C135.352 28.7553 135.113 29.0012 134.871 29.2792C134.636 29.55 134.407 29.8315 134.187 30.1237C133.966 30.4088 133.755 30.6939 133.556 30.979C133.356 31.264 133.178 31.5242 133.021 31.7594C133.028 32.2939 133.039 32.8213 133.053 33.3416C133.068 33.8547 133.078 34.3358 133.085 34.7848C133.1 35.2267 133.114 35.6294 133.128 35.9929C133.157 36.4755 132.81 36.9068 132.331 36.967L132.111 36.9946C131.457 37.0767 130.874 36.5799 130.851 35.9213C130.824 35.1713 130.8 34.4717 130.776 33.8227C130.741 32.8249 130.709 31.934 130.68 31.15C130.651 30.366 130.627 29.6747 130.605 29.076C130.591 28.4774 130.577 27.9606 130.562 27.5259C130.552 27.141 130.542 26.7938 130.533 26.4841C130.514 25.81 131.049 25.2498 131.723 25.238C132.393 25.2262 132.945 25.7598 132.946 26.4293C132.946 26.4705 132.946 26.5117 132.946 26.553C132.954 27.002 132.961 27.4154 132.968 27.7932C132.975 28.235 132.978 28.6662 132.978 29.0867C133.185 28.7589 133.435 28.399 133.727 28.007C134.026 27.615 134.361 27.2444 134.732 26.8951C135.109 26.5459 135.519 26.243 135.961 25.9864C136.41 25.7227 136.888 25.5588 137.394 25.4947C137.964 25.4662 138.484 25.5873 138.955 25.8581C139.154 25.9722 139.35 26.1254 139.543 26.3178C139.742 26.5032 139.924 26.7455 140.088 27.0448C140.259 27.337 140.401 27.6898 140.515 28.1032C140.573 28.307 140.621 28.5296 140.66 28.7711C140.734 29.2277 140.453 29.6583 140.02 29.821L139.501 30.0157Z" stroke="white" stroke-width="0.217029" mask="url(#path-5-outside-1_263_333)"/>
<path d="M143.742 25.914C144.375 25.8895 144.898 26.4035 144.884 27.0371C144.871 27.6149 144.858 28.1627 144.845 28.6805C144.831 29.5286 144.817 30.3019 144.802 31.0003C144.788 31.6988 144.774 32.326 144.76 32.8819C144.752 33.4307 144.745 33.9118 144.738 34.3251C144.728 34.7819 144.721 35.1934 144.715 35.5595C144.707 36.159 144.22 36.645 143.62 36.645C143.013 36.645 142.524 36.1467 142.536 35.5393C142.545 35.0376 142.556 34.4903 142.568 33.8975C142.582 32.9852 142.6 31.8699 142.621 30.5513C142.644 29.5029 142.665 28.3194 142.683 27.0006C142.691 26.4145 143.156 25.9366 143.742 25.914Z" stroke="white" stroke-width="0.217029" mask="url(#path-5-outside-1_263_333)"/>
<path d="M153.12 35.3728C153.497 35.3728 153.872 35.3158 154.242 35.2018C154.613 35.0806 154.955 34.9096 155.268 34.6886C155.582 34.4606 155.853 34.179 156.081 33.8441C156.138 33.7626 156.192 33.6779 156.241 33.5901C156.511 33.1135 157.019 32.7645 157.555 32.873C158.145 32.9922 158.511 33.6007 158.24 34.1385C158.113 34.3903 157.971 34.6307 157.813 34.8597C157.449 35.3871 157.025 35.8396 156.541 36.2174C156.056 36.5951 155.521 36.8873 154.937 37.094C154.36 37.3007 153.754 37.404 153.12 37.404C152.179 37.404 151.345 37.2615 150.618 36.9764C149.891 36.6913 149.278 36.2887 148.779 35.7684C148.28 35.2481 147.899 34.6209 147.635 33.8868C147.379 33.1527 147.251 32.3331 147.251 31.428C147.251 30.5371 147.4 29.7068 147.7 28.9371C148.006 28.1602 148.423 27.4867 148.95 26.9165C149.478 26.3464 150.098 25.8973 150.81 25.5695C151.523 25.2417 152.293 25.0777 153.12 25.0777C153.861 25.0777 154.559 25.2238 155.215 25.516C155.871 25.8011 156.452 26.2002 156.958 26.7134C157.464 27.2194 157.881 27.8181 158.208 28.5094C158.369 28.8479 158.5 29.2001 158.603 29.566C158.785 30.2179 158.3 30.8332 157.631 30.9329L149.57 32.1336C149.62 32.6396 149.745 33.0957 149.945 33.502C150.144 33.9011 150.397 34.2396 150.704 34.5176C151.017 34.7955 151.377 35.0093 151.783 35.159C152.197 35.3015 152.642 35.3728 153.12 35.3728ZM156.07 29.3754L156.006 29.1722C155.735 28.4667 155.361 27.9143 154.884 27.5152C154.413 27.1161 153.825 26.9165 153.12 26.9165C152.82 26.9165 152.492 26.97 152.136 27.0769C151.78 27.1767 151.434 27.3513 151.099 27.6007C150.764 27.8502 150.461 28.1851 150.19 28.6056C149.927 29.019 149.741 29.5357 149.635 30.1558L156.07 29.3754Z" stroke="white" stroke-width="0.217029" mask="url(#path-5-outside-1_263_333)"/>
<path d="M170.802 34.0151C170.802 34.6922 170.663 35.2624 170.385 35.7256C170.114 36.1817 169.747 36.5524 169.284 36.8374C168.828 37.1296 168.3 37.3435 167.702 37.4789C167.11 37.6214 166.494 37.7069 165.852 37.7355C165.197 37.7283 164.534 37.6606 163.864 37.5323C163.579 37.4824 163.276 37.4112 162.955 37.3185C162.641 37.233 162.321 37.1261 161.993 36.9978C161.665 36.8695 161.337 36.7163 161.009 36.5381C160.959 36.5108 160.909 36.4828 160.86 36.4542C160.39 36.1827 160.291 35.5693 160.583 35.1117C160.878 34.649 161.478 34.4918 161.972 34.7325C162.082 34.7861 162.192 34.8392 162.303 34.8917C162.716 35.0842 163.137 35.2552 163.564 35.4049C163.992 35.5474 164.43 35.6615 164.879 35.747C165.328 35.8325 165.792 35.8753 166.269 35.8753C166.661 35.8753 166.993 35.8396 167.263 35.7684C167.534 35.69 167.755 35.5973 167.926 35.4904C168.104 35.3764 168.24 35.2517 168.332 35.1162C168.432 34.9737 168.504 34.8383 168.546 34.71C168.582 34.596 168.596 34.4712 168.589 34.3358C168.582 34.1933 168.543 34.0507 168.471 33.9082C168.407 33.7657 168.304 33.6267 168.161 33.4913C168.026 33.3487 167.844 33.224 167.616 33.1171C167.388 33.0031 167.11 32.9104 166.782 32.8391C166.454 32.7679 166.066 32.7215 165.617 32.7002C164.976 32.6717 164.356 32.6075 163.757 32.5077C163.165 32.4008 162.634 32.2369 162.164 32.016C161.701 31.795 161.316 31.5064 161.009 31.15C160.71 30.7865 160.528 30.334 160.464 29.7923C160.414 29.2792 160.446 28.8123 160.56 28.3918C160.682 27.9642 160.86 27.5829 161.095 27.2479C161.337 26.913 161.633 26.6207 161.982 26.3713C162.331 26.1147 162.713 25.9045 163.126 25.7406C163.539 25.5695 163.974 25.4448 164.43 25.3664C164.894 25.2809 165.36 25.2381 165.831 25.2381C166.109 25.2381 166.437 25.2523 166.814 25.2809C167.192 25.3094 167.588 25.3664 168.001 25.4519C168.414 25.5374 168.831 25.6622 169.252 25.8261C169.408 25.8844 169.561 25.9501 169.709 26.0232C170.154 26.2424 170.306 26.7788 170.131 27.243C169.897 27.8638 169.174 28.1259 168.549 27.9049C168.48 27.8804 168.411 27.8575 168.343 27.8359C167.923 27.6934 167.548 27.5829 167.221 27.5045C166.836 27.419 166.476 27.362 166.141 27.3335C165.022 27.2693 164.149 27.3869 163.522 27.6862C162.902 27.9856 162.592 28.4382 162.592 29.044C162.592 29.4716 162.709 29.7852 162.944 29.9847C163.18 30.1772 163.5 30.3161 163.907 30.4017C164.313 30.4872 164.787 30.5442 165.328 30.5727C165.87 30.6012 166.447 30.6618 167.06 30.7545C167.759 30.8614 168.347 31.0217 168.824 31.2355C169.302 31.4494 169.687 31.6988 169.979 31.9839C170.271 32.269 170.481 32.5861 170.61 32.9354C170.738 33.2775 170.802 33.6374 170.802 34.0151Z" stroke="white" stroke-width="0.217029" mask="url(#path-5-outside-1_263_333)"/>
<path d="M99.0908 25.8599C99.755 25.8343 100.304 26.3729 100.289 27.0376L100.25 28.6812C100.236 29.5293 100.222 30.303 100.208 31.0015C100.194 31.6998 100.179 32.3274 100.165 32.8833C100.158 33.4317 100.151 33.9125 100.144 34.3257C100.134 34.7824 100.125 35.1941 100.12 35.5601C100.111 36.1887 99.6012 36.6986 98.9717 36.6987C98.3339 36.6987 97.8197 36.1753 97.832 35.5376C97.8417 35.0359 97.8523 34.4887 97.8643 33.896C97.8785 32.9838 97.8966 31.8686 97.918 30.5503V30.5493C97.9406 29.5012 97.9613 28.318 97.9795 26.9995C97.988 26.3846 98.4762 25.8836 99.0908 25.8599ZM99.2236 20.5112C99.4437 20.5113 99.6499 20.5559 99.8418 20.644H99.8428C100.035 20.7253 100.202 20.8397 100.343 20.9878H100.342C100.489 21.1277 100.603 21.2932 100.684 21.4839C100.773 21.6765 100.817 21.8838 100.817 22.105C100.817 22.3186 100.772 22.5215 100.684 22.7134L100.685 22.7144C100.604 22.9057 100.488 23.071 100.341 23.2114L100.342 23.2124C100.201 23.353 100.034 23.4644 99.8428 23.5454C99.6506 23.6267 99.444 23.6674 99.2236 23.6675C99.01 23.6675 98.8064 23.6266 98.6143 23.5454L98.6133 23.5444C98.4294 23.4635 98.2642 23.353 98.1172 23.2134L98.1162 23.2124C97.9756 23.0718 97.8642 22.9058 97.7832 22.7144C97.702 22.5222 97.6611 22.3186 97.6611 22.105C97.6612 21.8846 97.7019 21.678 97.7832 21.4858C97.8642 21.2944 97.9756 21.1274 98.1162 20.9868C98.2629 20.8402 98.4284 20.7261 98.6123 20.645L98.7588 20.5864C98.9074 20.5364 99.0628 20.5112 99.2236 20.5112Z" fill="white" stroke="white" stroke-width="0.108515"/>
<path d="M53.8542 21.0332C54.5176 20.9982 55.0738 21.5281 55.071 22.1924L55.0125 35.0029L63.2488 34.3613C63.9174 34.3092 64.4964 34.8204 64.5281 35.4902C64.5584 36.1358 64.0674 36.6881 63.4226 36.7324L54.6697 37.334C53.6678 37.4028 52.8162 36.6108 52.8123 35.6064L52.7595 22.1924C52.7571 21.576 53.2387 21.0659 53.8542 21.0332Z" fill="white" stroke="white" stroke-width="0.108515"/>
<path d="M67.6556 25.2124C68.3398 25.2326 68.8534 25.8382 68.7855 26.5171C68.7648 26.7247 68.7458 26.9261 68.7299 27.1216L68.6898 27.689C68.6542 28.3937 68.6361 29.0131 68.6361 29.5464C68.6361 29.7882 68.6397 30.0941 68.6469 30.4644C68.6539 30.8333 68.6794 31.2278 68.722 31.647H68.7211C68.7707 32.0577 68.8455 32.465 68.9447 32.8687C69.0434 33.2705 69.1805 33.6291 69.3558 33.9448L69.5004 34.1616C69.6529 34.3649 69.8305 34.5285 70.0326 34.6528C70.2972 34.8156 70.6259 34.8716 71.0228 34.8159C71.5528 34.7401 72.1117 34.3736 72.6996 33.7007H72.7006C73.2924 33.0313 73.9141 31.9998 74.5668 30.604C74.5455 29.4768 74.5256 28.5761 74.5043 27.9019V27.9009L74.472 26.3511C74.4545 25.8296 74.8408 25.3798 75.3597 25.3218L75.5551 25.3003C76.2509 25.2228 76.8659 25.7537 76.889 26.4536C76.9137 27.1988 76.9349 27.8941 76.9535 28.5396C76.9891 29.5228 77.0217 30.4098 77.0502 31.2007C77.0787 31.9844 77.0994 32.6761 77.1136 33.2749C77.135 33.8665 77.1531 34.3801 77.1674 34.8149L77.1957 35.8667C77.2131 36.5683 76.6545 37.1461 75.9535 37.1587C75.2489 37.1711 74.6675 36.6084 74.6576 35.9038L74.6342 34.2515C74.4831 34.5085 74.3224 34.7588 74.1469 34.9995L73.9271 35.2886C73.6256 35.6619 73.2989 35.9932 72.9467 36.2808H72.9457C72.5926 36.5618 72.2139 36.7857 71.8099 36.9517C71.4107 37.1185 70.9894 37.1947 70.5472 37.1802C69.9813 37.1613 69.4819 37.0653 69.0502 36.8911L68.8685 36.811C68.4062 36.5871 68.0153 36.2907 67.6967 35.9214V35.9204C67.3791 35.5451 67.1226 35.1159 66.9281 34.6333V34.6323C66.7416 34.1446 66.5978 33.6317 66.4974 33.0942C66.3973 32.5577 66.3291 32.0105 66.2933 31.4526V31.4517C66.2648 30.8878 66.2504 30.3414 66.2504 29.813C66.2504 29.0704 66.2828 28.3207 66.347 27.564C66.385 27.1133 66.4328 26.6574 66.4906 26.1968C66.5635 25.6157 67.0721 25.1953 67.6556 25.2124Z" fill="white" stroke="white" stroke-width="0.108515"/>
<path d="M81.1494 25.0508C81.834 24.9755 82.4349 25.5066 82.4443 26.1953L82.4668 27.9316C82.6667 27.6832 82.8749 27.429 83.0908 27.1699C83.3491 26.8614 83.6255 26.5814 83.9199 26.3301L83.9209 26.3291C84.2236 26.0769 84.5482 25.8717 84.8945 25.7129L85.0303 25.6533C85.3504 25.5252 85.6982 25.4619 86.0723 25.4619C86.3776 25.4619 86.6723 25.5124 86.9561 25.6143H86.9551C87.2401 25.7093 87.4991 25.8593 87.7324 26.0635C87.9665 26.2683 88.1638 26.5307 88.3232 26.8496H88.3223C88.4668 27.1322 88.5601 27.4637 88.6094 27.8428C88.8069 27.5963 89.0133 27.3467 89.2275 27.0947C89.4788 26.8004 89.7477 26.534 90.0352 26.2969C90.2571 26.1129 90.4918 25.9556 90.7383 25.8242L90.9893 25.7012C91.3318 25.5411 91.7102 25.4619 92.123 25.4619C92.4429 25.4619 92.7555 25.5161 93.0605 25.625C93.3676 25.7346 93.6384 25.907 93.8721 26.1406H93.8711C94.1123 26.3675 94.3091 26.662 94.4609 27.0234L94.5146 27.1602C94.633 27.4864 94.6981 27.8637 94.7109 28.291L94.7725 29.1738C94.7921 29.502 94.8103 29.864 94.8281 30.2598L94.877 31.415C94.8912 31.8466 94.9034 32.3245 94.9141 32.8486C94.9354 33.6272 94.9487 34.5236 94.9541 35.5371C94.9573 36.1625 94.4651 36.6772 93.8408 36.707C93.1728 36.7388 92.6136 36.2058 92.6123 35.5371C92.6108 34.7312 92.6084 34.0138 92.6035 33.3848C92.5964 32.4586 92.5892 31.6925 92.582 31.0869L92.5498 29.334L92.5381 29.124C92.5083 28.7176 92.4372 28.3993 92.3271 28.166L92.2686 28.0557C92.1119 27.7832 91.9101 27.6553 91.6631 27.6553C91.5381 27.6553 91.4099 27.6828 91.2783 27.7402L91.1455 27.8076C90.9712 27.9122 90.7924 28.0488 90.6094 28.2178C90.4337 28.3865 90.2564 28.5792 90.0801 28.7979L90.0811 28.7988C89.9107 29.0189 89.747 29.2426 89.5908 29.4697C89.4342 29.6975 89.2849 29.9184 89.1426 30.1318C89.0043 30.3393 88.882 30.5232 88.7773 30.6836C88.7913 30.9928 88.8063 31.3331 88.8203 31.7041C88.8346 32.0821 88.8454 32.5099 88.8525 32.9873L88.8682 33.7471C88.8717 34.0144 88.874 34.296 88.874 34.5918L88.8818 35.6172C88.8845 36.1981 88.4294 36.677 87.8496 36.707C87.2256 36.7392 86.7026 36.2415 86.6982 35.6172C86.6953 35.1981 86.6901 34.8026 86.6836 34.4307L86.6592 33.3857C86.6378 32.4595 86.6125 31.6931 86.584 31.0879C86.5555 30.3831 86.5202 29.7998 86.4775 29.3379V29.334C86.4589 28.8258 86.3832 28.4381 86.2549 28.166L86.1963 28.0557C86.0396 27.7832 85.8378 27.6553 85.5908 27.6553C85.4179 27.6553 85.2385 27.7112 85.0527 27.8281C84.8641 27.9469 84.671 28.1017 84.4736 28.292C84.3312 28.4345 84.1906 28.593 84.0518 28.7676L83.9131 28.9482C83.7284 29.1898 83.5504 29.435 83.3799 29.6836C83.209 29.9328 83.0489 30.1717 82.8994 30.3994C82.7539 30.6211 82.6246 30.8155 82.5127 30.9834L82.5918 35.5674C82.6021 36.1731 82.1294 36.6776 81.5244 36.708C80.894 36.7395 80.3616 36.2453 80.3457 35.6143L80.1104 26.2402C80.0952 25.634 80.5466 25.1171 81.1494 25.0508Z" fill="white" stroke="white" stroke-width="0.108515"/>
<mask id="path-10-outside-2_263_333" maskUnits="userSpaceOnUse" x="51.9551" y="1.14453" width="49" height="18" fill="black">
<rect fill="white" x="51.9551" y="1.14453" width="49" height="18"/>
<path d="M62.6918 16.9424C62.7159 17.4567 62.3247 17.896 61.8111 17.9313L54.3759 18.4429C53.6355 18.4938 53.0061 17.9086 53.0032 17.1664L52.9585 5.83986C52.9566 5.34953 53.3397 4.94391 53.8294 4.91789C54.3574 4.88984 54.8002 5.31171 54.7978 5.84044L54.7487 16.5827L61.6725 16.0429C62.2052 16.0014 62.6667 16.4086 62.6918 16.9424Z"/>
<path d="M66.84 5.76747C66.84 5.93999 66.8043 6.10358 66.7329 6.25826C66.6675 6.41293 66.5753 6.54678 66.4563 6.65981C66.3433 6.77284 66.2094 6.86208 66.0548 6.92752C65.9001 6.99296 65.7335 7.02568 65.555 7.02568C65.3825 7.02568 65.2189 6.99296 65.0642 6.92752C64.9155 6.86208 64.7817 6.77284 64.6627 6.65981C64.5497 6.54678 64.4604 6.41293 64.395 6.25826C64.3295 6.10358 64.2968 5.93999 64.2968 5.76747C64.2968 5.589 64.3295 5.42242 64.395 5.26775C64.4604 5.11308 64.5497 4.97922 64.6627 4.86619C64.7817 4.74721 64.9155 4.655 65.0642 4.58957C65.2189 4.51818 65.3825 4.48248 65.555 4.48248C65.7335 4.48248 65.9001 4.51818 66.0548 4.58957C66.2094 4.655 66.3433 4.74721 66.4563 4.86619C66.5753 4.97922 66.6675 5.11308 66.7329 5.26775C66.8043 5.42242 66.84 5.589 66.84 5.76747ZM65.446 8.9462C65.9746 8.92577 66.4113 9.3548 66.3995 9.88365C66.3887 10.366 66.3779 10.8232 66.3671 11.2554C66.3552 11.9633 66.3433 12.6088 66.3314 13.1918C66.3195 13.7748 66.3076 14.2983 66.2957 14.7623C66.2897 15.2204 66.2838 15.622 66.2778 15.967C66.2696 16.3483 66.2632 16.6917 66.2587 16.9973C66.2515 17.4977 65.8454 17.9034 65.3449 17.9034C64.8378 17.9034 64.4295 17.4874 64.4393 16.9805C64.4474 16.5617 64.4564 16.1049 64.4664 15.6101C64.4783 14.8486 64.4931 13.9176 64.511 12.817C64.5299 11.9419 64.547 10.954 64.5621 9.85322C64.5689 9.36396 64.9571 8.96509 65.446 8.9462Z"/>
<path d="M71.9115 4.87542C72.4291 4.84161 72.8653 5.25675 72.8572 5.77537L72.8098 8.80145L76.2721 8.68544L76.1383 10.3541L72.792 10.4434L72.7289 17.3188C72.7243 17.8238 72.3199 18.2341 71.815 18.2461C71.2822 18.2587 70.8464 17.8247 70.8568 17.292L70.9894 10.4969L68.762 10.5484C68.2934 10.5592 67.9104 10.1768 67.9206 9.70816C67.9301 9.27014 68.2813 8.91645 68.7193 8.90379L71.0251 8.83714L71.0816 5.74525C71.09 5.28364 71.4508 4.90551 71.9115 4.87542Z"/>
<path d="M80.5851 4.87542C81.1027 4.84161 81.539 5.25675 81.5309 5.77537L81.4835 8.80145L84.0173 8.71655C84.5121 8.69998 84.9111 9.11796 84.8715 9.61148C84.8376 10.0338 84.4907 10.3627 84.0671 10.374L81.4656 10.4434L81.4025 17.3188C81.3979 17.8238 80.9935 18.2341 80.4886 18.2461C79.9559 18.2587 79.52 17.8247 79.5304 17.292L79.6631 10.4969L76.5755 10.5683L76.6112 8.92638L79.6988 8.83714L79.7552 5.74525C79.7637 5.28364 80.1244 4.90551 80.5851 4.87542Z"/>
<path d="M89.9747 17.3104C89.9159 17.7604 89.5228 18.114 89.0839 17.9989C88.9665 17.9681 88.8543 17.9304 88.7472 17.8856C88.4259 17.7487 88.1404 17.5732 87.8905 17.3591C87.6466 17.139 87.4354 16.8891 87.257 16.6095C87.0844 16.3299 86.9387 16.0473 86.8197 15.7618C86.5342 15.0836 86.3557 14.3162 86.2843 13.4595L86.5059 3.05381C86.5166 2.54853 86.9293 2.14453 87.4347 2.14453C87.958 2.14453 88.3782 2.57659 88.3627 3.09969C88.3421 3.79522 88.3216 4.44949 88.301 5.06251C88.2772 5.94296 88.2564 6.74607 88.2385 7.47185C88.2207 8.19168 88.2028 8.83714 88.185 9.40825C88.1731 9.97935 88.1612 10.482 88.1493 10.9163C88.1255 11.9395 88.1077 12.7456 88.0958 13.3346C88.1077 13.8878 88.188 14.3816 88.3367 14.8159C88.3962 15.0003 88.4735 15.1817 88.5687 15.3602C88.6698 15.5387 88.7888 15.6993 88.9257 15.8421C89.0684 15.9849 89.235 16.1009 89.4254 16.1901C89.7673 16.3352 90.0616 16.6452 90.0135 17.0135L89.9747 17.3104Z"/>
<path d="M95.761 16.8415C96.0763 16.8415 96.3887 16.7939 96.698 16.6987C97.0074 16.5976 97.2929 16.4548 97.5547 16.2704C97.8164 16.08 98.0425 15.8451 98.2328 15.5655C98.2806 15.4974 98.3252 15.4268 98.3666 15.3535C98.5914 14.9557 99.0154 14.6644 99.4633 14.7549C99.956 14.8544 100.261 15.3624 100.035 15.8113C99.929 16.0214 99.8102 16.2221 99.6785 16.4132C99.3751 16.8534 99.0211 17.2312 98.6166 17.5465C98.212 17.8618 97.7659 18.1057 97.278 18.2782C96.7962 18.4507 96.2905 18.537 95.761 18.537C94.9758 18.537 94.2797 18.418 93.6729 18.18C93.0661 17.9421 92.5545 17.606 92.1381 17.1717C91.7217 16.7374 91.4034 16.2139 91.1833 15.6011C90.9691 14.9884 90.862 14.3043 90.862 13.5487C90.862 12.8051 90.987 12.1121 91.2368 11.4696C91.4926 10.8211 91.8407 10.259 92.2809 9.78303C92.7211 9.30711 93.2387 8.93233 93.8336 8.65867C94.4285 8.38502 95.071 8.24819 95.761 8.24819C96.3797 8.24819 96.9627 8.37015 97.51 8.61406C98.0574 8.85202 98.5422 9.18516 98.9646 9.61349C99.387 10.0359 99.735 10.5356 100.009 11.1126C100.131 11.3701 100.233 11.6371 100.315 11.9136C100.488 12.5006 100.048 13.0577 99.443 13.1479L92.7984 14.1377C92.8401 14.5601 92.9442 14.9408 93.1108 15.2799C93.2773 15.613 93.4885 15.8956 93.7443 16.1276C94.0061 16.3596 94.3065 16.5381 94.6456 16.663C94.9906 16.782 95.3625 16.8415 95.761 16.8415ZM98.2239 11.8354L98.1704 11.6659C97.9443 11.0769 97.632 10.6159 97.2334 10.2827C96.8408 9.94961 96.35 9.78303 95.761 9.78303C95.5112 9.78303 95.2375 9.82765 94.9401 9.91689C94.6426 10.0002 94.3541 10.1459 94.0745 10.3541C93.7949 10.5624 93.5421 10.842 93.316 11.1929C93.0959 11.538 92.9412 11.9693 92.852 12.4868L98.2239 11.8354Z"/>
</mask>
<path d="M62.6918 16.9424C62.7159 17.4567 62.3247 17.896 61.8111 17.9313L54.3759 18.4429C53.6355 18.4938 53.0061 17.9086 53.0032 17.1664L52.9585 5.83986C52.9566 5.34953 53.3397 4.94391 53.8294 4.91789C54.3574 4.88984 54.8002 5.31171 54.7978 5.84044L54.7487 16.5827L61.6725 16.0429C62.2052 16.0014 62.6667 16.4086 62.6918 16.9424Z" fill="white"/>
<path d="M66.84 5.76747C66.84 5.93999 66.8043 6.10358 66.7329 6.25826C66.6675 6.41293 66.5753 6.54678 66.4563 6.65981C66.3433 6.77284 66.2094 6.86208 66.0548 6.92752C65.9001 6.99296 65.7335 7.02568 65.555 7.02568C65.3825 7.02568 65.2189 6.99296 65.0642 6.92752C64.9155 6.86208 64.7817 6.77284 64.6627 6.65981C64.5497 6.54678 64.4604 6.41293 64.395 6.25826C64.3295 6.10358 64.2968 5.93999 64.2968 5.76747C64.2968 5.589 64.3295 5.42242 64.395 5.26775C64.4604 5.11308 64.5497 4.97922 64.6627 4.86619C64.7817 4.74721 64.9155 4.655 65.0642 4.58957C65.2189 4.51818 65.3825 4.48248 65.555 4.48248C65.7335 4.48248 65.9001 4.51818 66.0548 4.58957C66.2094 4.655 66.3433 4.74721 66.4563 4.86619C66.5753 4.97922 66.6675 5.11308 66.7329 5.26775C66.8043 5.42242 66.84 5.589 66.84 5.76747ZM65.446 8.9462C65.9746 8.92577 66.4113 9.3548 66.3995 9.88365C66.3887 10.366 66.3779 10.8232 66.3671 11.2554C66.3552 11.9633 66.3433 12.6088 66.3314 13.1918C66.3195 13.7748 66.3076 14.2983 66.2957 14.7623C66.2897 15.2204 66.2838 15.622 66.2778 15.967C66.2696 16.3483 66.2632 16.6917 66.2587 16.9973C66.2515 17.4977 65.8454 17.9034 65.3449 17.9034C64.8378 17.9034 64.4295 17.4874 64.4393 16.9805C64.4474 16.5617 64.4564 16.1049 64.4664 15.6101C64.4783 14.8486 64.4931 13.9176 64.511 12.817C64.5299 11.9419 64.547 10.954 64.5621 9.85322C64.5689 9.36396 64.9571 8.96509 65.446 8.9462Z" fill="white"/>
<path d="M71.9115 4.87542C72.4291 4.84161 72.8653 5.25675 72.8572 5.77537L72.8098 8.80145L76.2721 8.68544L76.1383 10.3541L72.792 10.4434L72.7289 17.3188C72.7243 17.8238 72.3199 18.2341 71.815 18.2461C71.2822 18.2587 70.8464 17.8247 70.8568 17.292L70.9894 10.4969L68.762 10.5484C68.2934 10.5592 67.9104 10.1768 67.9206 9.70816C67.9301 9.27014 68.2813 8.91645 68.7193 8.90379L71.0251 8.83714L71.0816 5.74525C71.09 5.28364 71.4508 4.90551 71.9115 4.87542Z" fill="white"/>
<path d="M80.5851 4.87542C81.1027 4.84161 81.539 5.25675 81.5309 5.77537L81.4835 8.80145L84.0173 8.71655C84.5121 8.69998 84.9111 9.11796 84.8715 9.61148C84.8376 10.0338 84.4907 10.3627 84.0671 10.374L81.4656 10.4434L81.4025 17.3188C81.3979 17.8238 80.9935 18.2341 80.4886 18.2461C79.9559 18.2587 79.52 17.8247 79.5304 17.292L79.6631 10.4969L76.5755 10.5683L76.6112 8.92638L79.6988 8.83714L79.7552 5.74525C79.7637 5.28364 80.1244 4.90551 80.5851 4.87542Z" fill="white"/>
<path d="M89.9747 17.3104C89.9159 17.7604 89.5228 18.114 89.0839 17.9989C88.9665 17.9681 88.8543 17.9304 88.7472 17.8856C88.4259 17.7487 88.1404 17.5732 87.8905 17.3591C87.6466 17.139 87.4354 16.8891 87.257 16.6095C87.0844 16.3299 86.9387 16.0473 86.8197 15.7618C86.5342 15.0836 86.3557 14.3162 86.2843 13.4595L86.5059 3.05381C86.5166 2.54853 86.9293 2.14453 87.4347 2.14453C87.958 2.14453 88.3782 2.57659 88.3627 3.09969C88.3421 3.79522 88.3216 4.44949 88.301 5.06251C88.2772 5.94296 88.2564 6.74607 88.2385 7.47185C88.2207 8.19168 88.2028 8.83714 88.185 9.40825C88.1731 9.97935 88.1612 10.482 88.1493 10.9163C88.1255 11.9395 88.1077 12.7456 88.0958 13.3346C88.1077 13.8878 88.188 14.3816 88.3367 14.8159C88.3962 15.0003 88.4735 15.1817 88.5687 15.3602C88.6698 15.5387 88.7888 15.6993 88.9257 15.8421C89.0684 15.9849 89.235 16.1009 89.4254 16.1901C89.7673 16.3352 90.0616 16.6452 90.0135 17.0135L89.9747 17.3104Z" fill="white"/>
<path d="M95.761 16.8415C96.0763 16.8415 96.3887 16.7939 96.698 16.6987C97.0074 16.5976 97.2929 16.4548 97.5547 16.2704C97.8164 16.08 98.0425 15.8451 98.2328 15.5655C98.2806 15.4974 98.3252 15.4268 98.3666 15.3535C98.5914 14.9557 99.0154 14.6644 99.4633 14.7549C99.956 14.8544 100.261 15.3624 100.035 15.8113C99.929 16.0214 99.8102 16.2221 99.6785 16.4132C99.3751 16.8534 99.0211 17.2312 98.6166 17.5465C98.212 17.8618 97.7659 18.1057 97.278 18.2782C96.7962 18.4507 96.2905 18.537 95.761 18.537C94.9758 18.537 94.2797 18.418 93.6729 18.18C93.0661 17.9421 92.5545 17.606 92.1381 17.1717C91.7217 16.7374 91.4034 16.2139 91.1833 15.6011C90.9691 14.9884 90.862 14.3043 90.862 13.5487C90.862 12.8051 90.987 12.1121 91.2368 11.4696C91.4926 10.8211 91.8407 10.259 92.2809 9.78303C92.7211 9.30711 93.2387 8.93233 93.8336 8.65867C94.4285 8.38502 95.071 8.24819 95.761 8.24819C96.3797 8.24819 96.9627 8.37015 97.51 8.61406C98.0574 8.85202 98.5422 9.18516 98.9646 9.61349C99.387 10.0359 99.735 10.5356 100.009 11.1126C100.131 11.3701 100.233 11.6371 100.315 11.9136C100.488 12.5006 100.048 13.0577 99.443 13.1479L92.7984 14.1377C92.8401 14.5601 92.9442 14.9408 93.1108 15.2799C93.2773 15.613 93.4885 15.8956 93.7443 16.1276C94.0061 16.3596 94.3065 16.5381 94.6456 16.663C94.9906 16.782 95.3625 16.8415 95.761 16.8415ZM98.2239 11.8354L98.1704 11.6659C97.9443 11.0769 97.632 10.6159 97.2334 10.2827C96.8408 9.94961 96.35 9.78303 95.761 9.78303C95.5112 9.78303 95.2375 9.82765 94.9401 9.91689C94.6426 10.0002 94.3541 10.1459 94.0745 10.3541C93.7949 10.5624 93.5421 10.842 93.316 11.1929C93.0959 11.538 92.9412 11.9693 92.852 12.4868L98.2239 11.8354Z" fill="white"/>
<path d="M62.6918 16.9424C62.7159 17.4567 62.3247 17.896 61.8111 17.9313L54.3759 18.4429C53.6355 18.4938 53.0061 17.9086 53.0032 17.1664L52.9585 5.83986C52.9566 5.34953 53.3397 4.94391 53.8294 4.91789C54.3574 4.88984 54.8002 5.31171 54.7978 5.84044L54.7487 16.5827L61.6725 16.0429C62.2052 16.0014 62.6667 16.4086 62.6918 16.9424Z" stroke="white" stroke-width="0.347247" mask="url(#path-10-outside-2_263_333)"/>
<path d="M66.84 5.76747C66.84 5.93999 66.8043 6.10358 66.7329 6.25826C66.6675 6.41293 66.5753 6.54678 66.4563 6.65981C66.3433 6.77284 66.2094 6.86208 66.0548 6.92752C65.9001 6.99296 65.7335 7.02568 65.555 7.02568C65.3825 7.02568 65.2189 6.99296 65.0642 6.92752C64.9155 6.86208 64.7817 6.77284 64.6627 6.65981C64.5497 6.54678 64.4604 6.41293 64.395 6.25826C64.3295 6.10358 64.2968 5.93999 64.2968 5.76747C64.2968 5.589 64.3295 5.42242 64.395 5.26775C64.4604 5.11308 64.5497 4.97922 64.6627 4.86619C64.7817 4.74721 64.9155 4.655 65.0642 4.58957C65.2189 4.51818 65.3825 4.48248 65.555 4.48248C65.7335 4.48248 65.9001 4.51818 66.0548 4.58957C66.2094 4.655 66.3433 4.74721 66.4563 4.86619C66.5753 4.97922 66.6675 5.11308 66.7329 5.26775C66.8043 5.42242 66.84 5.589 66.84 5.76747ZM65.446 8.9462C65.9746 8.92577 66.4113 9.3548 66.3995 9.88365C66.3887 10.366 66.3779 10.8232 66.3671 11.2554C66.3552 11.9633 66.3433 12.6088 66.3314 13.1918C66.3195 13.7748 66.3076 14.2983 66.2957 14.7623C66.2897 15.2204 66.2838 15.622 66.2778 15.967C66.2696 16.3483 66.2632 16.6917 66.2587 16.9973C66.2515 17.4977 65.8454 17.9034 65.3449 17.9034C64.8378 17.9034 64.4295 17.4874 64.4393 16.9805C64.4474 16.5617 64.4564 16.1049 64.4664 15.6101C64.4783 14.8486 64.4931 13.9176 64.511 12.817C64.5299 11.9419 64.547 10.954 64.5621 9.85322C64.5689 9.36396 64.9571 8.96509 65.446 8.9462Z" stroke="white" stroke-width="0.347247" mask="url(#path-10-outside-2_263_333)"/>
<path d="M71.9115 4.87542C72.4291 4.84161 72.8653 5.25675 72.8572 5.77537L72.8098 8.80145L76.2721 8.68544L76.1383 10.3541L72.792 10.4434L72.7289 17.3188C72.7243 17.8238 72.3199 18.2341 71.815 18.2461C71.2822 18.2587 70.8464 17.8247 70.8568 17.292L70.9894 10.4969L68.762 10.5484C68.2934 10.5592 67.9104 10.1768 67.9206 9.70816C67.9301 9.27014 68.2813 8.91645 68.7193 8.90379L71.0251 8.83714L71.0816 5.74525C71.09 5.28364 71.4508 4.90551 71.9115 4.87542Z" stroke="white" stroke-width="0.347247" mask="url(#path-10-outside-2_263_333)"/>
<path d="M80.5851 4.87542C81.1027 4.84161 81.539 5.25675 81.5309 5.77537L81.4835 8.80145L84.0173 8.71655C84.5121 8.69998 84.9111 9.11796 84.8715 9.61148C84.8376 10.0338 84.4907 10.3627 84.0671 10.374L81.4656 10.4434L81.4025 17.3188C81.3979 17.8238 80.9935 18.2341 80.4886 18.2461C79.9559 18.2587 79.52 17.8247 79.5304 17.292L79.6631 10.4969L76.5755 10.5683L76.6112 8.92638L79.6988 8.83714L79.7552 5.74525C79.7637 5.28364 80.1244 4.90551 80.5851 4.87542Z" stroke="white" stroke-width="0.347247" mask="url(#path-10-outside-2_263_333)"/>
<path d="M89.9747 17.3104C89.9159 17.7604 89.5228 18.114 89.0839 17.9989C88.9665 17.9681 88.8543 17.9304 88.7472 17.8856C88.4259 17.7487 88.1404 17.5732 87.8905 17.3591C87.6466 17.139 87.4354 16.8891 87.257 16.6095C87.0844 16.3299 86.9387 16.0473 86.8197 15.7618C86.5342 15.0836 86.3557 14.3162 86.2843 13.4595L86.5059 3.05381C86.5166 2.54853 86.9293 2.14453 87.4347 2.14453C87.958 2.14453 88.3782 2.57659 88.3627 3.09969C88.3421 3.79522 88.3216 4.44949 88.301 5.06251C88.2772 5.94296 88.2564 6.74607 88.2385 7.47185C88.2207 8.19168 88.2028 8.83714 88.185 9.40825C88.1731 9.97935 88.1612 10.482 88.1493 10.9163C88.1255 11.9395 88.1077 12.7456 88.0958 13.3346C88.1077 13.8878 88.188 14.3816 88.3367 14.8159C88.3962 15.0003 88.4735 15.1817 88.5687 15.3602C88.6698 15.5387 88.7888 15.6993 88.9257 15.8421C89.0684 15.9849 89.235 16.1009 89.4254 16.1901C89.7673 16.3352 90.0616 16.6452 90.0135 17.0135L89.9747 17.3104Z" stroke="white" stroke-width="0.347247" mask="url(#path-10-outside-2_263_333)"/>
<path d="M95.761 16.8415C96.0763 16.8415 96.3887 16.7939 96.698 16.6987C97.0074 16.5976 97.2929 16.4548 97.5547 16.2704C97.8164 16.08 98.0425 15.8451 98.2328 15.5655C98.2806 15.4974 98.3252 15.4268 98.3666 15.3535C98.5914 14.9557 99.0154 14.6644 99.4633 14.7549C99.956 14.8544 100.261 15.3624 100.035 15.8113C99.929 16.0214 99.8102 16.2221 99.6785 16.4132C99.3751 16.8534 99.0211 17.2312 98.6166 17.5465C98.212 17.8618 97.7659 18.1057 97.278 18.2782C96.7962 18.4507 96.2905 18.537 95.761 18.537C94.9758 18.537 94.2797 18.418 93.6729 18.18C93.0661 17.9421 92.5545 17.606 92.1381 17.1717C91.7217 16.7374 91.4034 16.2139 91.1833 15.6011C90.9691 14.9884 90.862 14.3043 90.862 13.5487C90.862 12.8051 90.987 12.1121 91.2368 11.4696C91.4926 10.8211 91.8407 10.259 92.2809 9.78303C92.7211 9.30711 93.2387 8.93233 93.8336 8.65867C94.4285 8.38502 95.071 8.24819 95.761 8.24819C96.3797 8.24819 96.9627 8.37015 97.51 8.61406C98.0574 8.85202 98.5422 9.18516 98.9646 9.61349C99.387 10.0359 99.735 10.5356 100.009 11.1126C100.131 11.3701 100.233 11.6371 100.315 11.9136C100.488 12.5006 100.048 13.0577 99.443 13.1479L92.7984 14.1377C92.8401 14.5601 92.9442 14.9408 93.1108 15.2799C93.2773 15.613 93.4885 15.8956 93.7443 16.1276C94.0061 16.3596 94.3065 16.5381 94.6456 16.663C94.9906 16.782 95.3625 16.8415 95.761 16.8415ZM98.2239 11.8354L98.1704 11.6659C97.9443 11.0769 97.632 10.6159 97.2334 10.2827C96.8408 9.94961 96.35 9.78303 95.761 9.78303C95.5112 9.78303 95.2375 9.82765 94.9401 9.91689C94.6426 10.0002 94.3541 10.1459 94.0745 10.3541C93.7949 10.5624 93.5421 10.842 93.316 11.1929C93.0959 11.538 92.9412 11.9693 92.852 12.4868L98.2239 11.8354Z" stroke="white" stroke-width="0.347247" mask="url(#path-10-outside-2_263_333)"/>
<rect x="102.593" y="6.49902" width="12.1348" height="12.1348" rx="6.06742" fill="#F2411F"/>
<path d="M109.395 10.6367H111.604" stroke="white" stroke-width="0.455056" stroke-linecap="round" stroke-linejoin="round"/>
<path d="M105.718 10.6372H107.926" stroke="white" stroke-width="0.455056" stroke-linecap="round" stroke-linejoin="round"/>
<path d="M109.395 13.5767H111.604" stroke="white" stroke-width="0.455056" stroke-linecap="round" stroke-linejoin="round"/>
<path d="M109.395 15.415H111.604" stroke="white" stroke-width="0.455056" stroke-linecap="round" stroke-linejoin="round"/>
<path d="M110.508 11.7382V9.53271" stroke="white" stroke-width="0.455056" stroke-linecap="round" stroke-linejoin="round"/>
<path d="M105.718 15.6L107.926 13.3945" stroke="white" stroke-width="0.455056" stroke-linecap="round" stroke-linejoin="round"/>
<path d="M107.926 15.6L105.718 13.3945" stroke="white" stroke-width="0.455056" stroke-linecap="round" stroke-linejoin="round"/>
<rect x="114.728" y="6.49902" width="12.1348" height="12.1348" rx="6.06742" fill="#FBBA18"/>
<g clip-path="url(#clip0_263_333)">
<path d="M118.065 10.746V10.4427C118.065 10.1076 118.337 9.83594 118.672 9.83594H120.796M123.526 10.746V10.4427C123.526 10.1076 123.254 9.83594 122.919 9.83594H120.796M120.796 9.83594V15.2966M121.402 15.2966H120.189" stroke="white" stroke-width="0.606741" stroke-linecap="round" stroke-linejoin="round"/>
</g>
<rect x="126.863" y="6.49902" width="12.1348" height="12.1348" rx="6.06742" fill="#9FC836"/>
<g clip-path="url(#clip1_263_333)">
<path d="M131.717 9.53271C131.047 9.53271 130.504 10.076 130.504 10.7462V11.7006C130.504 11.9304 130.374 12.1405 130.168 12.2433L130.065 12.2951C129.962 12.3465 129.897 12.4515 129.897 12.5664C129.897 12.6813 129.962 12.7864 130.065 12.8378L130.168 12.8896C130.374 12.9924 130.504 13.2025 130.504 13.4323V14.3866C130.504 15.0568 131.047 15.6001 131.717 15.6001H132.172C132.34 15.6001 132.476 15.4643 132.476 15.2968C132.476 15.1292 132.34 14.9934 132.172 14.9934H131.717C131.382 14.9934 131.11 14.7217 131.11 14.3866V13.4323C131.11 13.1014 130.976 12.7911 130.747 12.5664C130.976 12.3418 131.11 12.0314 131.11 11.7006V10.7462C131.11 10.4111 131.382 10.1395 131.717 10.1395H132.172C132.34 10.1395 132.476 10.0036 132.476 9.83609C132.476 9.66854 132.34 9.53271 132.172 9.53271H131.717Z" fill="white"/>
<path d="M134.144 9.53271C134.814 9.53271 135.358 10.076 135.358 10.7462V11.7006C135.358 11.9304 135.487 12.1405 135.693 12.2433L135.797 12.2951C135.899 12.3465 135.964 12.4515 135.964 12.5664C135.964 12.6813 135.899 12.7864 135.797 12.8378L135.693 12.8896C135.487 12.9924 135.358 13.2025 135.358 13.4323V14.3866C135.358 15.0568 134.814 15.6001 134.144 15.6001H133.689C133.521 15.6001 133.386 15.4643 133.386 15.2968C133.386 15.1292 133.521 14.9934 133.689 14.9934H134.144C134.479 14.9934 134.751 14.7217 134.751 14.3866V13.4323C134.751 13.1014 134.885 12.7911 135.114 12.5664C134.885 12.3418 134.751 12.0314 134.751 11.7006V10.7462C134.751 10.4111 134.479 10.1395 134.144 10.1395H133.689C133.521 10.1395 133.386 10.0036 133.386 9.83609C133.386 9.66854 133.521 9.53271 133.689 9.53271H134.144Z" fill="white"/>
</g>
<rect x="138.998" y="6.49902" width="12.1348" height="12.1348" rx="6.06742" fill="#3AC8EE"/>
<path d="M148.099 14.0046V10.3429C148.099 9.97889 147.802 9.70889 147.441 9.73922H147.422C146.785 9.79383 145.818 10.1184 145.278 10.4582L145.226 10.4916C145.138 10.5462 144.992 10.5462 144.904 10.4916L144.829 10.4461C144.289 10.1093 143.324 9.78776 142.687 9.73619C142.326 9.70585 142.031 9.97889 142.031 10.3399V14.0046C142.031 14.2959 142.268 14.5689 142.559 14.6053L142.647 14.6174C143.306 14.7054 144.322 15.0391 144.904 15.3576L144.917 15.3637C144.998 15.4092 145.129 15.4092 145.208 15.3637C145.79 15.0421 146.81 14.7054 147.471 14.6174L147.571 14.6053C147.862 14.5689 148.099 14.2959 148.099 14.0046Z" stroke="white" stroke-width="0.455056" stroke-linecap="round" stroke-linejoin="round"/>
<path d="M145.065 10.5913V15.1419" stroke="white" stroke-width="0.455056" stroke-linecap="round" stroke-linejoin="round"/>
<path d="M143.776 11.5015H143.093" stroke="white" stroke-width="0.455056" stroke-linecap="round" stroke-linejoin="round"/>
<path d="M144.003 12.4116H143.093" stroke="white" stroke-width="0.455056" stroke-linecap="round" stroke-linejoin="round"/>
<defs>
<clipPath id="clip0_263_333">
<rect width="7.2809" height="7.2809" fill="white" transform="translate(117.155 8.92578)"/>
</clipPath>
<clipPath id="clip1_263_333">
<rect width="7.2809" height="7.2809" fill="white" transform="translate(129.29 8.92578)"/>
</clipPath>
</defs>
</svg>
