<svg width="171" height="40" viewBox="0 0 171 40" fill="none" xmlns="http://www.w3.org/2000/svg">
<path d="M20 38.0467C20 39.1255 19.1234 40.0099 18.0498 39.9047C16.0923 39.7129 14.1701 39.233 12.3463 38.4776C9.91982 37.4725 7.71504 35.9993 5.85786 34.1421C4.00069 32.285 2.5275 30.0802 1.52241 27.6537C0.766979 25.8299 0.287097 23.9077 0.095305 21.9502C-0.00988344 20.8766 0.874505 20 1.95326 20L18.0467 20C19.1255 20 20 20.8745 20 21.9533L20 38.0467Z" fill="#F2411F"/>
<path d="M23.5955 38.0466C23.5955 39.1254 24.472 40.0098 25.5456 39.9046C27.5032 39.7128 29.4254 39.2329 31.2491 38.4775C33.6756 37.4724 35.8804 35.9992 37.7376 34.142C39.5948 32.2849 41.068 30.0801 42.0731 27.6536C42.8285 25.8298 43.3084 23.9076 43.5002 21.9501C43.6053 20.8765 42.721 19.9999 41.6422 19.9999L25.5487 19.9999C24.47 19.9999 23.5955 20.8744 23.5955 21.9532L23.5955 38.0466Z" fill="#FBBA18"/>
<circle cx="33.7079" cy="8.5392" r="8.08989" fill="#9FC836"/>
<circle cx="9.88762" cy="8.5392" r="8.08989" fill="#3AC8EE"/>
<mask id="path-5-outside-1_70_1760" maskUnits="userSpaceOnUse" x="102.301" y="23.0348" width="69" height="15" fill="black">
<rect fill="white" x="102.301" y="23.0348" width="69" height="15"/>
<path d="M104.941 36.5363C104.273 36.6202 103.677 36.1125 103.653 35.4395C103.627 34.6997 103.602 34.0091 103.579 33.3678C103.544 32.37 103.512 31.4791 103.483 30.6951C103.455 29.9111 103.43 29.2198 103.408 28.6211C103.394 28.0224 103.38 27.5057 103.365 27.071C103.355 26.6855 103.345 26.3377 103.336 26.0277C103.317 25.3544 103.851 24.7949 104.525 24.7831V24.7831C105.194 24.7713 105.746 25.3061 105.756 25.9759L105.781 27.8407C106.017 27.4345 106.284 27.0532 106.583 26.6968C106.883 26.3333 107.207 26.0126 107.556 25.7346C107.905 25.4567 108.276 25.2322 108.668 25.0611C109.067 24.8901 109.484 24.7903 109.919 24.7618C110.46 24.7262 110.931 24.7725 111.33 24.9008C111.736 25.0291 112.082 25.2072 112.367 25.4353C112.652 25.6634 112.887 25.9342 113.073 26.2478C113.258 26.5543 113.404 26.875 113.511 27.21C113.618 27.5378 113.693 27.8656 113.735 28.1935C113.785 28.5213 113.817 28.8207 113.832 29.0915C113.874 30.3174 113.885 31.5504 113.864 32.7905C113.848 33.6878 113.831 34.6093 113.812 35.5551C113.799 36.1574 113.297 36.633 112.695 36.6124V36.6124C112.091 36.5918 111.622 36.0812 111.65 35.4783C111.685 34.6964 111.718 33.9145 111.747 33.1326C111.797 31.9851 111.793 30.827 111.736 29.6581C111.736 29.5298 111.725 29.3659 111.704 29.1663C111.69 28.9597 111.651 28.7423 111.587 28.5142C111.53 28.2861 111.448 28.0616 111.341 27.8407C111.234 27.6126 111.095 27.4166 110.924 27.2527C110.753 27.0817 110.542 26.9534 110.293 26.8679C110.051 26.7823 109.766 26.7645 109.438 26.8144C108.875 26.8999 108.301 27.3133 107.717 28.0545C107.139 28.7886 106.516 29.8648 105.846 31.2831C105.874 32.4306 105.896 33.3464 105.91 34.0306C105.931 34.7077 105.949 35.2208 105.963 35.57V35.57C105.979 36.0404 105.634 36.4492 105.167 36.5079L104.941 36.5363Z"/>
<path d="M126.266 36.7461C125.693 36.6498 125.294 36.1266 125.351 35.5492L125.399 35.0676C124.529 35.6235 123.674 36.0262 122.833 36.2756C121.999 36.5251 121.219 36.6498 120.492 36.6498C119.979 36.6498 119.48 36.5821 118.995 36.4467C118.518 36.3184 118.094 36.1188 117.723 35.848C117.359 35.57 117.064 35.2208 116.836 34.8003C116.615 34.3727 116.504 33.8702 116.504 33.2929C116.504 32.7156 116.59 32.1989 116.761 31.7428C116.932 31.2867 117.167 30.884 117.466 30.5347C117.766 30.1855 118.119 29.8862 118.525 29.6367C118.931 29.3873 119.366 29.1842 119.829 29.0274C120.299 28.8706 120.791 28.7565 121.304 28.6853C121.817 28.6069 122.327 28.5677 122.833 28.5677C123.303 28.5677 123.742 28.5855 124.148 28.6211C124.554 28.6568 124.914 28.7031 125.228 28.7601C125.135 28.4037 125.021 28.0545 124.886 27.7124C124.75 27.3632 124.576 27.0532 124.362 26.7823C124.155 26.5044 123.899 26.2799 123.592 26.1088C123.286 25.9378 122.919 25.8522 122.491 25.8522C122.213 25.8522 121.896 25.895 121.54 25.9805C121.183 26.0589 120.791 26.205 120.364 26.4188C119.936 26.6327 119.469 26.9284 118.963 27.3062C118.697 27.5008 118.422 27.7248 118.137 27.9783C117.696 28.3701 117.012 28.3427 116.637 27.8873V27.8873C116.304 27.4823 116.34 26.8849 116.741 26.5468C117.177 26.1791 117.6 25.8621 118.012 25.5957C118.639 25.1894 119.227 24.8723 119.776 24.6442C120.331 24.409 120.845 24.2486 121.315 24.1631C121.793 24.0776 122.22 24.0348 122.598 24.0348C123.254 24.0348 123.838 24.1489 124.351 24.3769C124.864 24.5979 125.313 24.9043 125.698 25.2963C126.09 25.6812 126.418 26.1373 126.682 26.6647C126.953 27.185 127.173 27.7481 127.345 28.3539C127.516 28.9525 127.637 29.5762 127.708 30.2247C127.786 30.8733 127.826 31.5183 127.826 32.1597C127.826 32.8439 127.786 33.578 127.708 34.362C127.661 34.8317 127.599 35.3271 127.521 35.848C127.432 36.4471 126.863 36.8467 126.266 36.7461V36.7461ZM125.548 32.6836C125.563 32.3272 125.573 31.9744 125.581 31.6252C125.588 31.276 125.57 30.9125 125.527 30.5347C125.178 30.4278 124.811 30.3423 124.426 30.2782C124.041 30.214 123.656 30.182 123.271 30.182C122.63 30.182 122.006 30.2568 121.401 30.4065C120.802 30.5561 120.285 30.7735 119.85 31.0586C119.416 31.3437 119.088 31.6929 118.867 32.1063C118.653 32.5196 118.61 32.99 118.739 33.5174C118.838 33.9451 119.031 34.2444 119.316 34.4154C119.608 34.5865 119.957 34.672 120.364 34.672C120.777 34.672 121.222 34.6043 121.7 34.4689C122.185 34.3264 122.662 34.1553 123.132 33.9558C123.61 33.7491 124.059 33.5317 124.479 33.3036C124.9 33.0756 125.256 32.8689 125.548 32.6836Z"/>
<path d="M139.501 29.5608C139.083 29.7179 138.645 29.4101 138.548 28.9739V28.9739C138.498 28.7173 138.431 28.4964 138.345 28.3111C138.267 28.1258 138.174 27.9726 138.067 27.8514C137.967 27.7302 137.864 27.6305 137.757 27.5521C137.508 27.3739 137.226 27.2884 136.913 27.2955C136.713 27.324 136.499 27.4095 136.271 27.5521C136.05 27.6875 135.822 27.8656 135.587 28.0866C135.352 28.3004 135.113 28.5463 134.871 28.8242C134.636 29.0951 134.407 29.3766 134.187 29.6688C133.966 29.9539 133.755 30.239 133.556 30.5241C133.356 30.8091 133.178 31.0693 133.021 31.3045C133.028 31.839 133.039 32.3664 133.053 32.8867C133.068 33.3998 133.078 33.8809 133.085 34.3299C133.1 34.7718 133.114 35.1745 133.128 35.538V35.538C133.157 36.0206 132.81 36.4519 132.331 36.5121L132.111 36.5397C131.457 36.6218 130.874 36.125 130.851 35.4664C130.824 34.7164 130.8 34.0168 130.776 33.3678C130.741 32.37 130.709 31.4791 130.68 30.6951C130.651 29.9111 130.627 29.2198 130.605 28.6211C130.591 28.0224 130.577 27.5057 130.562 27.071C130.552 26.6861 130.542 26.3389 130.533 26.0292C130.514 25.3551 131.049 24.7949 131.723 24.7831V24.7831C132.393 24.7713 132.945 25.3049 132.946 25.9744C132.946 26.0155 132.946 26.0568 132.946 26.0981C132.954 26.5471 132.961 26.9605 132.968 27.3382C132.975 27.7801 132.978 28.2113 132.978 28.6318C133.185 28.304 133.435 27.944 133.727 27.5521C134.026 27.1601 134.361 26.7895 134.732 26.4402C135.109 26.091 135.519 25.7881 135.961 25.5315C136.41 25.2678 136.888 25.1039 137.394 25.0398C137.964 25.0112 138.484 25.1324 138.955 25.4032C139.154 25.5173 139.35 25.6705 139.543 25.8629C139.742 26.0482 139.924 26.2906 140.088 26.5899C140.259 26.8821 140.401 27.2349 140.515 27.6483C140.573 27.8521 140.621 28.0747 140.66 28.3162C140.734 28.7728 140.453 29.2034 140.02 29.3661L139.501 29.5608Z"/>
<path d="M143.742 25.4591C144.375 25.4346 144.898 25.9486 144.884 26.5822C144.871 27.16 144.858 27.7078 144.845 28.2256C144.831 29.0737 144.817 29.847 144.802 30.5454C144.788 31.2439 144.774 31.8711 144.76 32.427C144.752 32.9758 144.745 33.4569 144.738 33.8702C144.728 34.327 144.721 34.7385 144.715 35.1046C144.707 35.7041 144.22 36.1901 143.62 36.1901V36.1901C143.013 36.1901 142.524 35.6917 142.536 35.0844C142.545 34.5827 142.556 34.0354 142.568 33.4426C142.582 32.5303 142.6 31.4149 142.621 30.0964C142.644 29.048 142.665 27.8645 142.683 26.5457C142.691 25.9596 143.156 25.4817 143.742 25.4591V25.4591Z"/>
<path d="M153.12 34.9179C153.497 34.9179 153.872 34.8609 154.242 34.7469C154.613 34.6257 154.955 34.4546 155.268 34.2337C155.582 34.0056 155.853 33.7241 156.081 33.3891C156.138 33.3077 156.192 33.223 156.241 33.1352C156.511 32.6586 157.019 32.3096 157.555 32.418V32.418C158.145 32.5373 158.511 33.1458 158.24 33.6836C158.113 33.9354 157.971 34.1758 157.813 34.4048C157.449 34.9322 157.025 35.3847 156.541 35.7625C156.056 36.1402 155.521 36.4324 154.937 36.6391C154.36 36.8458 153.754 36.9491 153.12 36.9491C152.179 36.9491 151.345 36.8066 150.618 36.5215C149.891 36.2364 149.278 35.8337 148.779 35.3135C148.28 34.7932 147.899 34.166 147.635 33.4319C147.379 32.6978 147.251 31.8782 147.251 30.9731C147.251 30.0822 147.4 29.2519 147.7 28.4821C148.006 27.7053 148.423 27.0318 148.95 26.4616C149.478 25.8914 150.098 25.4424 150.81 25.1146C151.523 24.7867 152.293 24.6228 153.12 24.6228C153.861 24.6228 154.559 24.7689 155.215 25.0611C155.871 25.3462 156.452 25.7453 156.958 26.2585C157.464 26.7645 157.881 27.3632 158.208 28.0545C158.369 28.393 158.5 28.7452 158.603 29.1111C158.785 29.763 158.3 30.3782 157.631 30.478L149.57 31.6786C149.62 32.1847 149.745 32.6408 149.945 33.047C150.144 33.4462 150.397 33.7847 150.704 34.0627C151.017 34.3406 151.377 34.5544 151.783 34.7041C152.197 34.8466 152.642 34.9179 153.12 34.9179ZM156.07 28.9205L156.006 28.7173C155.735 28.0118 155.361 27.4594 154.884 27.0603C154.413 26.6612 153.825 26.4616 153.12 26.4616C152.82 26.4616 152.492 26.5151 152.136 26.622C151.78 26.7218 151.434 26.8964 151.099 27.1458C150.764 27.3953 150.461 27.7302 150.19 28.1507C149.927 28.5641 149.741 29.0808 149.635 29.7009L156.07 28.9205Z"/>
<path d="M170.802 33.5602C170.802 34.2373 170.663 34.8074 170.385 35.2707C170.114 35.7268 169.747 36.0974 169.284 36.3825C168.828 36.6747 168.3 36.8886 167.702 37.024C167.11 37.1665 166.494 37.252 165.852 37.2805C165.197 37.2734 164.534 37.2057 163.864 37.0774C163.579 37.0275 163.276 36.9563 162.955 36.8636C162.641 36.7781 162.321 36.6712 161.993 36.5429C161.665 36.4146 161.337 36.2614 161.009 36.0832C160.959 36.0559 160.909 36.0279 160.86 35.9993C160.39 35.7278 160.291 35.1144 160.583 34.6568V34.6568C160.878 34.1941 161.478 34.0368 161.972 34.2775C162.082 34.3312 162.192 34.3843 162.303 34.4368C162.716 34.6293 163.137 34.8003 163.564 34.95C163.992 35.0925 164.43 35.2066 164.879 35.2921C165.328 35.3776 165.792 35.4204 166.269 35.4204C166.661 35.4204 166.993 35.3847 167.263 35.3135C167.534 35.2351 167.755 35.1424 167.926 35.0355C168.104 34.9215 168.24 34.7967 168.332 34.6613C168.432 34.5188 168.503 34.3834 168.546 34.2551C168.582 34.1411 168.596 34.0163 168.589 33.8809C168.582 33.7384 168.543 33.5958 168.471 33.4533C168.407 33.3107 168.304 33.1718 168.161 33.0364C168.026 32.8938 167.844 32.7691 167.616 32.6622C167.388 32.5482 167.11 32.4555 166.782 32.3842C166.454 32.313 166.066 32.2666 165.617 32.2452C164.976 32.2167 164.356 32.1526 163.757 32.0528C163.165 31.9459 162.634 31.782 162.164 31.561C161.701 31.3401 161.316 31.0515 161.009 30.6951C160.71 30.3316 160.528 29.8791 160.464 29.3374C160.414 28.8242 160.446 28.3574 160.56 27.9369C160.682 27.5093 160.86 27.128 161.095 26.793C161.337 26.458 161.633 26.1658 161.982 25.9164C162.331 25.6598 162.713 25.4496 163.126 25.2856C163.539 25.1146 163.974 24.9899 164.43 24.9115C164.894 24.8259 165.36 24.7832 165.831 24.7832C166.109 24.7832 166.437 24.7974 166.814 24.8259C167.192 24.8545 167.588 24.9115 168.001 24.997C168.414 25.0825 168.831 25.2072 169.252 25.3712C169.408 25.4295 169.561 25.4952 169.709 25.5683C170.154 25.7875 170.306 26.3239 170.131 26.7881V26.7881C169.897 27.4089 169.174 27.671 168.549 27.4499C168.48 27.4255 168.411 27.4025 168.343 27.381C167.923 27.2385 167.548 27.128 167.221 27.0496C166.836 26.9641 166.476 26.9071 166.141 26.8785C165.022 26.8144 164.149 26.932 163.522 27.2313C162.902 27.5307 162.592 27.9832 162.592 28.589C162.592 29.0167 162.709 29.3303 162.944 29.5298C163.18 29.7223 163.5 29.8612 163.907 29.9468C164.313 30.0323 164.787 30.0893 165.328 30.1178C165.87 30.1463 166.447 30.2069 167.06 30.2996C167.759 30.4065 168.347 30.5668 168.824 30.7806C169.302 30.9944 169.687 31.2439 169.979 31.529C170.271 31.8141 170.481 32.1312 170.61 32.4804C170.738 32.8225 170.802 33.1825 170.802 33.5602Z"/>
</mask>
<path d="M104.941 36.5363C104.273 36.6202 103.677 36.1125 103.653 35.4395C103.627 34.6997 103.602 34.0091 103.579 33.3678C103.544 32.37 103.512 31.4791 103.483 30.6951C103.455 29.9111 103.43 29.2198 103.408 28.6211C103.394 28.0224 103.38 27.5057 103.365 27.071C103.355 26.6855 103.345 26.3377 103.336 26.0277C103.317 25.3544 103.851 24.7949 104.525 24.7831V24.7831C105.194 24.7713 105.746 25.3061 105.756 25.9759L105.781 27.8407C106.017 27.4345 106.284 27.0532 106.583 26.6968C106.883 26.3333 107.207 26.0126 107.556 25.7346C107.905 25.4567 108.276 25.2322 108.668 25.0611C109.067 24.8901 109.484 24.7903 109.919 24.7618C110.46 24.7262 110.931 24.7725 111.33 24.9008C111.736 25.0291 112.082 25.2072 112.367 25.4353C112.652 25.6634 112.887 25.9342 113.073 26.2478C113.258 26.5543 113.404 26.875 113.511 27.21C113.618 27.5378 113.693 27.8656 113.735 28.1935C113.785 28.5213 113.817 28.8207 113.832 29.0915C113.874 30.3174 113.885 31.5504 113.864 32.7905C113.848 33.6878 113.831 34.6093 113.812 35.5551C113.799 36.1574 113.297 36.633 112.695 36.6124V36.6124C112.091 36.5918 111.622 36.0812 111.65 35.4783C111.685 34.6964 111.718 33.9145 111.747 33.1326C111.797 31.9851 111.793 30.827 111.736 29.6581C111.736 29.5298 111.725 29.3659 111.704 29.1663C111.69 28.9597 111.651 28.7423 111.587 28.5142C111.53 28.2861 111.448 28.0616 111.341 27.8407C111.234 27.6126 111.095 27.4166 110.924 27.2527C110.753 27.0817 110.542 26.9534 110.293 26.8679C110.051 26.7823 109.766 26.7645 109.438 26.8144C108.875 26.8999 108.301 27.3133 107.717 28.0545C107.139 28.7886 106.516 29.8648 105.846 31.2831C105.874 32.4306 105.896 33.3464 105.91 34.0306C105.931 34.7077 105.949 35.2208 105.963 35.57V35.57C105.979 36.0404 105.634 36.4492 105.167 36.5079L104.941 36.5363Z" fill="#222222"/>
<path d="M126.266 36.7461C125.693 36.6498 125.294 36.1266 125.351 35.5492L125.399 35.0676C124.529 35.6235 123.674 36.0262 122.833 36.2756C121.999 36.5251 121.219 36.6498 120.492 36.6498C119.979 36.6498 119.48 36.5821 118.995 36.4467C118.518 36.3184 118.094 36.1188 117.723 35.848C117.359 35.57 117.064 35.2208 116.836 34.8003C116.615 34.3727 116.504 33.8702 116.504 33.2929C116.504 32.7156 116.59 32.1989 116.761 31.7428C116.932 31.2867 117.167 30.884 117.466 30.5347C117.766 30.1855 118.119 29.8862 118.525 29.6367C118.931 29.3873 119.366 29.1842 119.829 29.0274C120.299 28.8706 120.791 28.7565 121.304 28.6853C121.817 28.6069 122.327 28.5677 122.833 28.5677C123.303 28.5677 123.742 28.5855 124.148 28.6211C124.554 28.6568 124.914 28.7031 125.228 28.7601C125.135 28.4037 125.021 28.0545 124.886 27.7124C124.75 27.3632 124.576 27.0532 124.362 26.7823C124.155 26.5044 123.899 26.2799 123.592 26.1088C123.286 25.9378 122.919 25.8522 122.491 25.8522C122.213 25.8522 121.896 25.895 121.54 25.9805C121.183 26.0589 120.791 26.205 120.364 26.4188C119.936 26.6327 119.469 26.9284 118.963 27.3062C118.697 27.5008 118.422 27.7248 118.137 27.9783C117.696 28.3701 117.012 28.3427 116.637 27.8873V27.8873C116.304 27.4823 116.34 26.8849 116.741 26.5468C117.177 26.1791 117.6 25.8621 118.012 25.5957C118.639 25.1894 119.227 24.8723 119.776 24.6442C120.331 24.409 120.845 24.2486 121.315 24.1631C121.793 24.0776 122.22 24.0348 122.598 24.0348C123.254 24.0348 123.838 24.1489 124.351 24.3769C124.864 24.5979 125.313 24.9043 125.698 25.2963C126.09 25.6812 126.418 26.1373 126.682 26.6647C126.953 27.185 127.173 27.7481 127.345 28.3539C127.516 28.9525 127.637 29.5762 127.708 30.2247C127.786 30.8733 127.826 31.5183 127.826 32.1597C127.826 32.8439 127.786 33.578 127.708 34.362C127.661 34.8317 127.599 35.3271 127.521 35.848C127.432 36.4471 126.863 36.8467 126.266 36.7461V36.7461ZM125.548 32.6836C125.563 32.3272 125.573 31.9744 125.581 31.6252C125.588 31.276 125.57 30.9125 125.527 30.5347C125.178 30.4278 124.811 30.3423 124.426 30.2782C124.041 30.214 123.656 30.182 123.271 30.182C122.63 30.182 122.006 30.2568 121.401 30.4065C120.802 30.5561 120.285 30.7735 119.85 31.0586C119.416 31.3437 119.088 31.6929 118.867 32.1063C118.653 32.5196 118.61 32.99 118.739 33.5174C118.838 33.9451 119.031 34.2444 119.316 34.4154C119.608 34.5865 119.957 34.672 120.364 34.672C120.777 34.672 121.222 34.6043 121.7 34.4689C122.185 34.3264 122.662 34.1553 123.132 33.9558C123.61 33.7491 124.059 33.5317 124.479 33.3036C124.9 33.0756 125.256 32.8689 125.548 32.6836Z" fill="#222222"/>
<path d="M139.501 29.5608C139.083 29.7179 138.645 29.4101 138.548 28.9739V28.9739C138.498 28.7173 138.431 28.4964 138.345 28.3111C138.267 28.1258 138.174 27.9726 138.067 27.8514C137.967 27.7302 137.864 27.6305 137.757 27.5521C137.508 27.3739 137.226 27.2884 136.913 27.2955C136.713 27.324 136.499 27.4095 136.271 27.5521C136.05 27.6875 135.822 27.8656 135.587 28.0866C135.352 28.3004 135.113 28.5463 134.871 28.8242C134.636 29.0951 134.407 29.3766 134.187 29.6688C133.966 29.9539 133.755 30.239 133.556 30.5241C133.356 30.8091 133.178 31.0693 133.021 31.3045C133.028 31.839 133.039 32.3664 133.053 32.8867C133.068 33.3998 133.078 33.8809 133.085 34.3299C133.1 34.7718 133.114 35.1745 133.128 35.538V35.538C133.157 36.0206 132.81 36.4519 132.331 36.5121L132.111 36.5397C131.457 36.6218 130.874 36.125 130.851 35.4664C130.824 34.7164 130.8 34.0168 130.776 33.3678C130.741 32.37 130.709 31.4791 130.68 30.6951C130.651 29.9111 130.627 29.2198 130.605 28.6211C130.591 28.0224 130.577 27.5057 130.562 27.071C130.552 26.6861 130.542 26.3389 130.533 26.0292C130.514 25.3551 131.049 24.7949 131.723 24.7831V24.7831C132.393 24.7713 132.945 25.3049 132.946 25.9744C132.946 26.0155 132.946 26.0568 132.946 26.0981C132.954 26.5471 132.961 26.9605 132.968 27.3382C132.975 27.7801 132.978 28.2113 132.978 28.6318C133.185 28.304 133.435 27.944 133.727 27.5521C134.026 27.1601 134.361 26.7895 134.732 26.4402C135.109 26.091 135.519 25.7881 135.961 25.5315C136.41 25.2678 136.888 25.1039 137.394 25.0398C137.964 25.0112 138.484 25.1324 138.955 25.4032C139.154 25.5173 139.35 25.6705 139.543 25.8629C139.742 26.0482 139.924 26.2906 140.088 26.5899C140.259 26.8821 140.401 27.2349 140.515 27.6483C140.573 27.8521 140.621 28.0747 140.66 28.3162C140.734 28.7728 140.453 29.2034 140.02 29.3661L139.501 29.5608Z" fill="#222222"/>
<path d="M143.742 25.4591C144.375 25.4346 144.898 25.9486 144.884 26.5822C144.871 27.16 144.858 27.7078 144.845 28.2256C144.831 29.0737 144.817 29.847 144.802 30.5454C144.788 31.2439 144.774 31.8711 144.76 32.427C144.752 32.9758 144.745 33.4569 144.738 33.8702C144.728 34.327 144.721 34.7385 144.715 35.1046C144.707 35.7041 144.22 36.1901 143.62 36.1901V36.1901C143.013 36.1901 142.524 35.6917 142.536 35.0844C142.545 34.5827 142.556 34.0354 142.568 33.4426C142.582 32.5303 142.6 31.4149 142.621 30.0964C142.644 29.048 142.665 27.8645 142.683 26.5457C142.691 25.9596 143.156 25.4817 143.742 25.4591V25.4591Z" fill="#222222"/>
<path d="M153.12 34.9179C153.497 34.9179 153.872 34.8609 154.242 34.7469C154.613 34.6257 154.955 34.4546 155.268 34.2337C155.582 34.0056 155.853 33.7241 156.081 33.3891C156.138 33.3077 156.192 33.223 156.241 33.1352C156.511 32.6586 157.019 32.3096 157.555 32.418V32.418C158.145 32.5373 158.511 33.1458 158.24 33.6836C158.113 33.9354 157.971 34.1758 157.813 34.4048C157.449 34.9322 157.025 35.3847 156.541 35.7625C156.056 36.1402 155.521 36.4324 154.937 36.6391C154.36 36.8458 153.754 36.9491 153.12 36.9491C152.179 36.9491 151.345 36.8066 150.618 36.5215C149.891 36.2364 149.278 35.8337 148.779 35.3135C148.28 34.7932 147.899 34.166 147.635 33.4319C147.379 32.6978 147.251 31.8782 147.251 30.9731C147.251 30.0822 147.4 29.2519 147.7 28.4821C148.006 27.7053 148.423 27.0318 148.95 26.4616C149.478 25.8914 150.098 25.4424 150.81 25.1146C151.523 24.7867 152.293 24.6228 153.12 24.6228C153.861 24.6228 154.559 24.7689 155.215 25.0611C155.871 25.3462 156.452 25.7453 156.958 26.2585C157.464 26.7645 157.881 27.3632 158.208 28.0545C158.369 28.393 158.5 28.7452 158.603 29.1111C158.785 29.763 158.3 30.3782 157.631 30.478L149.57 31.6786C149.62 32.1847 149.745 32.6408 149.945 33.047C150.144 33.4462 150.397 33.7847 150.704 34.0627C151.017 34.3406 151.377 34.5544 151.783 34.7041C152.197 34.8466 152.642 34.9179 153.12 34.9179ZM156.07 28.9205L156.006 28.7173C155.735 28.0118 155.361 27.4594 154.884 27.0603C154.413 26.6612 153.825 26.4616 153.12 26.4616C152.82 26.4616 152.492 26.5151 152.136 26.622C151.78 26.7218 151.434 26.8964 151.099 27.1458C150.764 27.3953 150.461 27.7302 150.19 28.1507C149.927 28.5641 149.741 29.0808 149.635 29.7009L156.07 28.9205Z" fill="#222222"/>
<path d="M170.802 33.5602C170.802 34.2373 170.663 34.8074 170.385 35.2707C170.114 35.7268 169.747 36.0974 169.284 36.3825C168.828 36.6747 168.3 36.8886 167.702 37.024C167.11 37.1665 166.494 37.252 165.852 37.2805C165.197 37.2734 164.534 37.2057 163.864 37.0774C163.579 37.0275 163.276 36.9563 162.955 36.8636C162.641 36.7781 162.321 36.6712 161.993 36.5429C161.665 36.4146 161.337 36.2614 161.009 36.0832C160.959 36.0559 160.909 36.0279 160.86 35.9993C160.39 35.7278 160.291 35.1144 160.583 34.6568V34.6568C160.878 34.1941 161.478 34.0368 161.972 34.2775C162.082 34.3312 162.192 34.3843 162.303 34.4368C162.716 34.6293 163.137 34.8003 163.564 34.95C163.992 35.0925 164.43 35.2066 164.879 35.2921C165.328 35.3776 165.792 35.4204 166.269 35.4204C166.661 35.4204 166.993 35.3847 167.263 35.3135C167.534 35.2351 167.755 35.1424 167.926 35.0355C168.104 34.9215 168.24 34.7967 168.332 34.6613C168.432 34.5188 168.503 34.3834 168.546 34.2551C168.582 34.1411 168.596 34.0163 168.589 33.8809C168.582 33.7384 168.543 33.5958 168.471 33.4533C168.407 33.3107 168.304 33.1718 168.161 33.0364C168.026 32.8938 167.844 32.7691 167.616 32.6622C167.388 32.5482 167.11 32.4555 166.782 32.3842C166.454 32.313 166.066 32.2666 165.617 32.2452C164.976 32.2167 164.356 32.1526 163.757 32.0528C163.165 31.9459 162.634 31.782 162.164 31.561C161.701 31.3401 161.316 31.0515 161.009 30.6951C160.71 30.3316 160.528 29.8791 160.464 29.3374C160.414 28.8242 160.446 28.3574 160.56 27.9369C160.682 27.5093 160.86 27.128 161.095 26.793C161.337 26.458 161.633 26.1658 161.982 25.9164C162.331 25.6598 162.713 25.4496 163.126 25.2856C163.539 25.1146 163.974 24.9899 164.43 24.9115C164.894 24.8259 165.36 24.7832 165.831 24.7832C166.109 24.7832 166.437 24.7974 166.814 24.8259C167.192 24.8545 167.588 24.9115 168.001 24.997C168.414 25.0825 168.831 25.2072 169.252 25.3712C169.408 25.4295 169.561 25.4952 169.709 25.5683C170.154 25.7875 170.306 26.3239 170.131 26.7881V26.7881C169.897 27.4089 169.174 27.671 168.549 27.4499C168.48 27.4255 168.411 27.4025 168.343 27.381C167.923 27.2385 167.548 27.128 167.221 27.0496C166.836 26.9641 166.476 26.9071 166.141 26.8785C165.022 26.8144 164.149 26.932 163.522 27.2313C162.902 27.5307 162.592 27.9832 162.592 28.589C162.592 29.0167 162.709 29.3303 162.944 29.5298C163.18 29.7223 163.5 29.8612 163.907 29.9468C164.313 30.0323 164.787 30.0893 165.328 30.1178C165.87 30.1463 166.447 30.2069 167.06 30.2996C167.759 30.4065 168.347 30.5668 168.824 30.7806C169.302 30.9944 169.687 31.2439 169.979 31.529C170.271 31.8141 170.481 32.1312 170.61 32.4804C170.738 32.8225 170.802 33.1825 170.802 33.5602Z" fill="#222222"/>
<path d="M104.941 36.5363C104.273 36.6202 103.677 36.1125 103.653 35.4395C103.627 34.6997 103.602 34.0091 103.579 33.3678C103.544 32.37 103.512 31.4791 103.483 30.6951C103.455 29.9111 103.43 29.2198 103.408 28.6211C103.394 28.0224 103.38 27.5057 103.365 27.071C103.355 26.6855 103.345 26.3377 103.336 26.0277C103.317 25.3544 103.851 24.7949 104.525 24.7831V24.7831C105.194 24.7713 105.746 25.3061 105.756 25.9759L105.781 27.8407C106.017 27.4345 106.284 27.0532 106.583 26.6968C106.883 26.3333 107.207 26.0126 107.556 25.7346C107.905 25.4567 108.276 25.2322 108.668 25.0611C109.067 24.8901 109.484 24.7903 109.919 24.7618C110.46 24.7262 110.931 24.7725 111.33 24.9008C111.736 25.0291 112.082 25.2072 112.367 25.4353C112.652 25.6634 112.887 25.9342 113.073 26.2478C113.258 26.5543 113.404 26.875 113.511 27.21C113.618 27.5378 113.693 27.8656 113.735 28.1935C113.785 28.5213 113.817 28.8207 113.832 29.0915C113.874 30.3174 113.885 31.5504 113.864 32.7905C113.848 33.6878 113.831 34.6093 113.812 35.5551C113.799 36.1574 113.297 36.633 112.695 36.6124V36.6124C112.091 36.5918 111.622 36.0812 111.65 35.4783C111.685 34.6964 111.718 33.9145 111.747 33.1326C111.797 31.9851 111.793 30.827 111.736 29.6581C111.736 29.5298 111.725 29.3659 111.704 29.1663C111.69 28.9597 111.651 28.7423 111.587 28.5142C111.53 28.2861 111.448 28.0616 111.341 27.8407C111.234 27.6126 111.095 27.4166 110.924 27.2527C110.753 27.0817 110.542 26.9534 110.293 26.8679C110.051 26.7823 109.766 26.7645 109.438 26.8144C108.875 26.8999 108.301 27.3133 107.717 28.0545C107.139 28.7886 106.516 29.8648 105.846 31.2831C105.874 32.4306 105.896 33.3464 105.91 34.0306C105.931 34.7077 105.949 35.2208 105.963 35.57V35.57C105.979 36.0404 105.634 36.4492 105.167 36.5079L104.941 36.5363Z" stroke="#222222" stroke-width="0.217029" mask="url(#path-5-outside-1_70_1760)"/>
<path d="M126.266 36.7461C125.693 36.6498 125.294 36.1266 125.351 35.5492L125.399 35.0676C124.529 35.6235 123.674 36.0262 122.833 36.2756C121.999 36.5251 121.219 36.6498 120.492 36.6498C119.979 36.6498 119.48 36.5821 118.995 36.4467C118.518 36.3184 118.094 36.1188 117.723 35.848C117.359 35.57 117.064 35.2208 116.836 34.8003C116.615 34.3727 116.504 33.8702 116.504 33.2929C116.504 32.7156 116.59 32.1989 116.761 31.7428C116.932 31.2867 117.167 30.884 117.466 30.5347C117.766 30.1855 118.119 29.8862 118.525 29.6367C118.931 29.3873 119.366 29.1842 119.829 29.0274C120.299 28.8706 120.791 28.7565 121.304 28.6853C121.817 28.6069 122.327 28.5677 122.833 28.5677C123.303 28.5677 123.742 28.5855 124.148 28.6211C124.554 28.6568 124.914 28.7031 125.228 28.7601C125.135 28.4037 125.021 28.0545 124.886 27.7124C124.75 27.3632 124.576 27.0532 124.362 26.7823C124.155 26.5044 123.899 26.2799 123.592 26.1088C123.286 25.9378 122.919 25.8522 122.491 25.8522C122.213 25.8522 121.896 25.895 121.54 25.9805C121.183 26.0589 120.791 26.205 120.364 26.4188C119.936 26.6327 119.469 26.9284 118.963 27.3062C118.697 27.5008 118.422 27.7248 118.137 27.9783C117.696 28.3701 117.012 28.3427 116.637 27.8873V27.8873C116.304 27.4823 116.34 26.8849 116.741 26.5468C117.177 26.1791 117.6 25.8621 118.012 25.5957C118.639 25.1894 119.227 24.8723 119.776 24.6442C120.331 24.409 120.845 24.2486 121.315 24.1631C121.793 24.0776 122.22 24.0348 122.598 24.0348C123.254 24.0348 123.838 24.1489 124.351 24.3769C124.864 24.5979 125.313 24.9043 125.698 25.2963C126.09 25.6812 126.418 26.1373 126.682 26.6647C126.953 27.185 127.173 27.7481 127.345 28.3539C127.516 28.9525 127.637 29.5762 127.708 30.2247C127.786 30.8733 127.826 31.5183 127.826 32.1597C127.826 32.8439 127.786 33.578 127.708 34.362C127.661 34.8317 127.599 35.3271 127.521 35.848C127.432 36.4471 126.863 36.8467 126.266 36.7461V36.7461ZM125.548 32.6836C125.563 32.3272 125.573 31.9744 125.581 31.6252C125.588 31.276 125.57 30.9125 125.527 30.5347C125.178 30.4278 124.811 30.3423 124.426 30.2782C124.041 30.214 123.656 30.182 123.271 30.182C122.63 30.182 122.006 30.2568 121.401 30.4065C120.802 30.5561 120.285 30.7735 119.85 31.0586C119.416 31.3437 119.088 31.6929 118.867 32.1063C118.653 32.5196 118.61 32.99 118.739 33.5174C118.838 33.9451 119.031 34.2444 119.316 34.4154C119.608 34.5865 119.957 34.672 120.364 34.672C120.777 34.672 121.222 34.6043 121.7 34.4689C122.185 34.3264 122.662 34.1553 123.132 33.9558C123.61 33.7491 124.059 33.5317 124.479 33.3036C124.9 33.0756 125.256 32.8689 125.548 32.6836Z" stroke="#222222" stroke-width="0.217029" mask="url(#path-5-outside-1_70_1760)"/>
<path d="M139.501 29.5608C139.083 29.7179 138.645 29.4101 138.548 28.9739V28.9739C138.498 28.7173 138.431 28.4964 138.345 28.3111C138.267 28.1258 138.174 27.9726 138.067 27.8514C137.967 27.7302 137.864 27.6305 137.757 27.5521C137.508 27.3739 137.226 27.2884 136.913 27.2955C136.713 27.324 136.499 27.4095 136.271 27.5521C136.05 27.6875 135.822 27.8656 135.587 28.0866C135.352 28.3004 135.113 28.5463 134.871 28.8242C134.636 29.0951 134.407 29.3766 134.187 29.6688C133.966 29.9539 133.755 30.239 133.556 30.5241C133.356 30.8091 133.178 31.0693 133.021 31.3045C133.028 31.839 133.039 32.3664 133.053 32.8867C133.068 33.3998 133.078 33.8809 133.085 34.3299C133.1 34.7718 133.114 35.1745 133.128 35.538V35.538C133.157 36.0206 132.81 36.4519 132.331 36.5121L132.111 36.5397C131.457 36.6218 130.874 36.125 130.851 35.4664C130.824 34.7164 130.8 34.0168 130.776 33.3678C130.741 32.37 130.709 31.4791 130.68 30.6951C130.651 29.9111 130.627 29.2198 130.605 28.6211C130.591 28.0224 130.577 27.5057 130.562 27.071C130.552 26.6861 130.542 26.3389 130.533 26.0292C130.514 25.3551 131.049 24.7949 131.723 24.7831V24.7831C132.393 24.7713 132.945 25.3049 132.946 25.9744C132.946 26.0155 132.946 26.0568 132.946 26.0981C132.954 26.5471 132.961 26.9605 132.968 27.3382C132.975 27.7801 132.978 28.2113 132.978 28.6318C133.185 28.304 133.435 27.944 133.727 27.5521C134.026 27.1601 134.361 26.7895 134.732 26.4402C135.109 26.091 135.519 25.7881 135.961 25.5315C136.41 25.2678 136.888 25.1039 137.394 25.0398C137.964 25.0112 138.484 25.1324 138.955 25.4032C139.154 25.5173 139.35 25.6705 139.543 25.8629C139.742 26.0482 139.924 26.2906 140.088 26.5899C140.259 26.8821 140.401 27.2349 140.515 27.6483C140.573 27.8521 140.621 28.0747 140.66 28.3162C140.734 28.7728 140.453 29.2034 140.02 29.3661L139.501 29.5608Z" stroke="#222222" stroke-width="0.217029" mask="url(#path-5-outside-1_70_1760)"/>
<path d="M143.742 25.4591C144.375 25.4346 144.898 25.9486 144.884 26.5822C144.871 27.16 144.858 27.7078 144.845 28.2256C144.831 29.0737 144.817 29.847 144.802 30.5454C144.788 31.2439 144.774 31.8711 144.76 32.427C144.752 32.9758 144.745 33.4569 144.738 33.8702C144.728 34.327 144.721 34.7385 144.715 35.1046C144.707 35.7041 144.22 36.1901 143.62 36.1901V36.1901C143.013 36.1901 142.524 35.6917 142.536 35.0844C142.545 34.5827 142.556 34.0354 142.568 33.4426C142.582 32.5303 142.6 31.4149 142.621 30.0964C142.644 29.048 142.665 27.8645 142.683 26.5457C142.691 25.9596 143.156 25.4817 143.742 25.4591V25.4591Z" stroke="#222222" stroke-width="0.217029" mask="url(#path-5-outside-1_70_1760)"/>
<path d="M153.12 34.9179C153.497 34.9179 153.872 34.8609 154.242 34.7469C154.613 34.6257 154.955 34.4546 155.268 34.2337C155.582 34.0056 155.853 33.7241 156.081 33.3891C156.138 33.3077 156.192 33.223 156.241 33.1352C156.511 32.6586 157.019 32.3096 157.555 32.418V32.418C158.145 32.5373 158.511 33.1458 158.24 33.6836C158.113 33.9354 157.971 34.1758 157.813 34.4048C157.449 34.9322 157.025 35.3847 156.541 35.7625C156.056 36.1402 155.521 36.4324 154.937 36.6391C154.36 36.8458 153.754 36.9491 153.12 36.9491C152.179 36.9491 151.345 36.8066 150.618 36.5215C149.891 36.2364 149.278 35.8337 148.779 35.3135C148.28 34.7932 147.899 34.166 147.635 33.4319C147.379 32.6978 147.251 31.8782 147.251 30.9731C147.251 30.0822 147.4 29.2519 147.7 28.4821C148.006 27.7053 148.423 27.0318 148.95 26.4616C149.478 25.8914 150.098 25.4424 150.81 25.1146C151.523 24.7867 152.293 24.6228 153.12 24.6228C153.861 24.6228 154.559 24.7689 155.215 25.0611C155.871 25.3462 156.452 25.7453 156.958 26.2585C157.464 26.7645 157.881 27.3632 158.208 28.0545C158.369 28.393 158.5 28.7452 158.603 29.1111C158.785 29.763 158.3 30.3782 157.631 30.478L149.57 31.6786C149.62 32.1847 149.745 32.6408 149.945 33.047C150.144 33.4462 150.397 33.7847 150.704 34.0627C151.017 34.3406 151.377 34.5544 151.783 34.7041C152.197 34.8466 152.642 34.9179 153.12 34.9179ZM156.07 28.9205L156.006 28.7173C155.735 28.0118 155.361 27.4594 154.884 27.0603C154.413 26.6612 153.825 26.4616 153.12 26.4616C152.82 26.4616 152.492 26.5151 152.136 26.622C151.78 26.7218 151.434 26.8964 151.099 27.1458C150.764 27.3953 150.461 27.7302 150.19 28.1507C149.927 28.5641 149.741 29.0808 149.635 29.7009L156.07 28.9205Z" stroke="#222222" stroke-width="0.217029" mask="url(#path-5-outside-1_70_1760)"/>
<path d="M170.802 33.5602C170.802 34.2373 170.663 34.8074 170.385 35.2707C170.114 35.7268 169.747 36.0974 169.284 36.3825C168.828 36.6747 168.3 36.8886 167.702 37.024C167.11 37.1665 166.494 37.252 165.852 37.2805C165.197 37.2734 164.534 37.2057 163.864 37.0774C163.579 37.0275 163.276 36.9563 162.955 36.8636C162.641 36.7781 162.321 36.6712 161.993 36.5429C161.665 36.4146 161.337 36.2614 161.009 36.0832C160.959 36.0559 160.909 36.0279 160.86 35.9993C160.39 35.7278 160.291 35.1144 160.583 34.6568V34.6568C160.878 34.1941 161.478 34.0368 161.972 34.2775C162.082 34.3312 162.192 34.3843 162.303 34.4368C162.716 34.6293 163.137 34.8003 163.564 34.95C163.992 35.0925 164.43 35.2066 164.879 35.2921C165.328 35.3776 165.792 35.4204 166.269 35.4204C166.661 35.4204 166.993 35.3847 167.263 35.3135C167.534 35.2351 167.755 35.1424 167.926 35.0355C168.104 34.9215 168.24 34.7967 168.332 34.6613C168.432 34.5188 168.503 34.3834 168.546 34.2551C168.582 34.1411 168.596 34.0163 168.589 33.8809C168.582 33.7384 168.543 33.5958 168.471 33.4533C168.407 33.3107 168.304 33.1718 168.161 33.0364C168.026 32.8938 167.844 32.7691 167.616 32.6622C167.388 32.5482 167.11 32.4555 166.782 32.3842C166.454 32.313 166.066 32.2666 165.617 32.2452C164.976 32.2167 164.356 32.1526 163.757 32.0528C163.165 31.9459 162.634 31.782 162.164 31.561C161.701 31.3401 161.316 31.0515 161.009 30.6951C160.71 30.3316 160.528 29.8791 160.464 29.3374C160.414 28.8242 160.446 28.3574 160.56 27.9369C160.682 27.5093 160.86 27.128 161.095 26.793C161.337 26.458 161.633 26.1658 161.982 25.9164C162.331 25.6598 162.713 25.4496 163.126 25.2856C163.539 25.1146 163.974 24.9899 164.43 24.9115C164.894 24.8259 165.36 24.7832 165.831 24.7832C166.109 24.7832 166.437 24.7974 166.814 24.8259C167.192 24.8545 167.588 24.9115 168.001 24.997C168.414 25.0825 168.831 25.2072 169.252 25.3712C169.408 25.4295 169.561 25.4952 169.709 25.5683C170.154 25.7875 170.306 26.3239 170.131 26.7881V26.7881C169.897 27.4089 169.174 27.671 168.549 27.4499C168.48 27.4255 168.411 27.4025 168.343 27.381C167.923 27.2385 167.548 27.128 167.221 27.0496C166.836 26.9641 166.476 26.9071 166.141 26.8785C165.022 26.8144 164.149 26.932 163.522 27.2313C162.902 27.5307 162.592 27.9832 162.592 28.589C162.592 29.0167 162.709 29.3303 162.944 29.5298C163.18 29.7223 163.5 29.8612 163.907 29.9468C164.313 30.0323 164.787 30.0893 165.328 30.1178C165.87 30.1463 166.447 30.2069 167.06 30.2996C167.759 30.4065 168.347 30.5668 168.824 30.7806C169.302 30.9944 169.687 31.2439 169.979 31.529C170.271 31.8141 170.481 32.1312 170.61 32.4804C170.738 32.8225 170.802 33.1825 170.802 33.5602Z" stroke="#222222" stroke-width="0.217029" mask="url(#path-5-outside-1_70_1760)"/>
<path d="M99.0908 25.4052C99.755 25.3797 100.304 25.9183 100.289 26.583L100.25 28.2265C100.236 29.0747 100.222 29.8483 100.208 30.5468C100.194 31.2452 100.179 31.8727 100.165 32.4287C100.158 32.9771 100.151 33.4579 100.144 33.8711C100.134 34.3278 100.125 34.7395 100.12 35.1054C100.111 35.734 99.6012 36.244 98.9717 36.2441C98.3339 36.2441 97.8197 35.7207 97.832 35.083C97.8417 34.5813 97.8523 34.0341 97.8643 33.4414C97.8785 32.5292 97.8966 31.414 97.918 30.0957V30.0947C97.9406 29.0466 97.9613 27.8633 97.9795 26.5449C97.988 25.93 98.4762 25.429 99.0908 25.4052ZM99.2236 20.0566C99.4437 20.0567 99.6499 20.1013 99.8418 20.1894H99.8428C100.035 20.2707 100.202 20.3851 100.343 20.5332H100.342C100.489 20.6731 100.603 20.8386 100.684 21.0293C100.773 21.2219 100.817 21.4292 100.817 21.6504C100.817 21.864 100.772 22.0669 100.684 22.2588L100.685 22.2597C100.604 22.4511 100.488 22.6164 100.341 22.7568L100.342 22.7578C100.201 22.8984 100.034 23.0098 99.8428 23.0908C99.6506 23.1721 99.444 23.2128 99.2236 23.2129C99.01 23.2129 98.8064 23.172 98.6143 23.0908L98.6133 23.0898C98.4294 23.0089 98.2642 22.8984 98.1172 22.7588L98.1162 22.7578C97.9756 22.6172 97.8642 22.4511 97.7832 22.2597C97.702 22.0676 97.6611 21.864 97.6611 21.6504C97.6612 21.43 97.7019 21.2234 97.7832 21.0312C97.8642 20.8398 97.9756 20.6728 98.1162 20.5322C98.2629 20.3856 98.4284 20.2715 98.6123 20.1904L98.7588 20.1318C98.9074 20.0818 99.0628 20.0566 99.2236 20.0566Z" fill="#222222" stroke="#222222" stroke-width="0.108515"/>
<path d="M53.8542 20.5788C54.5176 20.5438 55.0738 21.0737 55.071 21.738L55.0125 34.5486L63.2488 33.907C63.9174 33.8548 64.4964 34.366 64.5281 35.0359C64.5584 35.6814 64.0674 36.2337 63.4226 36.278L54.6697 36.8796C53.6678 36.9484 52.8162 36.1564 52.8123 35.1521L52.7595 21.738C52.7571 21.1216 53.2387 20.6115 53.8542 20.5788Z" fill="#222222" stroke="#222222" stroke-width="0.108515"/>
<path d="M67.6556 24.7579C68.3398 24.7781 68.8534 25.3837 68.7855 26.0626C68.7648 26.2702 68.7458 26.4716 68.7299 26.6671L68.6898 27.2345C68.6542 27.9393 68.6361 28.5586 68.6361 29.0919C68.6361 29.3337 68.6397 29.6396 68.6469 30.0099C68.6539 30.3788 68.6794 30.7733 68.722 31.1925H68.7211C68.7707 31.6032 68.8455 32.0105 68.9447 32.4142C69.0434 32.816 69.1805 33.1746 69.3558 33.4903L69.5004 33.7071C69.6529 33.9104 69.8305 34.074 70.0326 34.1983C70.2972 34.3611 70.6259 34.4171 71.0228 34.3614C71.5528 34.2856 72.1117 33.9191 72.6996 33.2462H72.7006C73.2924 32.5768 73.9141 31.5453 74.5668 30.1495C74.5455 29.0223 74.5256 28.1216 74.5043 27.4474V27.4464L74.472 25.8966C74.4545 25.3751 74.8408 24.9253 75.3597 24.8673L75.5551 24.8458C76.2509 24.7683 76.8659 25.2992 76.889 25.9991C76.9137 26.7443 76.9349 27.4396 76.9535 28.0851C76.9891 29.0683 77.0217 29.9553 77.0502 30.7462C77.0787 31.5299 77.0994 32.2216 77.1136 32.8204C77.135 33.412 77.1531 33.9256 77.1674 34.3604L77.1957 35.4122C77.2131 36.1138 76.6545 36.6916 75.9535 36.7042C75.2489 36.7166 74.6675 36.1539 74.6576 35.4493L74.6342 33.797C74.4831 34.054 74.3224 34.3043 74.1469 34.545L73.9271 34.8341C73.6256 35.2074 73.2989 35.5387 72.9467 35.8263H72.9457C72.5926 36.1073 72.2139 36.3312 71.8099 36.4972C71.4107 36.664 70.9894 36.7402 70.5472 36.7257C69.9813 36.7068 69.4819 36.6108 69.0502 36.4366L68.8685 36.3565C68.4062 36.1326 68.0153 35.8362 67.6967 35.4669V35.4659C67.3791 35.0906 67.1226 34.6614 66.9281 34.1788V34.1778C66.7416 33.6901 66.5978 33.1772 66.4974 32.6397C66.3973 32.1032 66.3291 31.556 66.2933 30.9981V30.9972C66.2648 30.4333 66.2504 29.8869 66.2504 29.3585C66.2504 28.6159 66.2828 27.8662 66.347 27.1095C66.385 26.6588 66.4328 26.2029 66.4906 25.7423C66.5635 25.1612 67.0721 24.7408 67.6556 24.7579Z" fill="#222222" stroke="#222222" stroke-width="0.108515"/>
<path d="M81.1494 24.596C81.834 24.5208 82.4349 25.0519 82.4443 25.7406L82.4668 27.4769C82.6667 27.2285 82.8749 26.9742 83.0908 26.7152C83.3491 26.4067 83.6255 26.1267 83.9199 25.8753L83.9209 25.8743C84.2236 25.6222 84.5482 25.4169 84.8945 25.2581L85.0303 25.1986C85.3504 25.0704 85.6982 25.0072 86.0723 25.0072C86.3776 25.0072 86.6723 25.0577 86.9561 25.1595H86.9551C87.2401 25.2545 87.4991 25.4046 87.7324 25.6087C87.9665 25.8136 88.1638 26.076 88.3232 26.3949H88.3223C88.4668 26.6774 88.5601 27.0089 88.6094 27.388C88.8069 27.1415 89.0133 26.892 89.2275 26.64C89.4788 26.3456 89.7477 26.0793 90.0352 25.8421C90.2571 25.6581 90.4918 25.5008 90.7383 25.3695L90.9893 25.2464C91.3318 25.0863 91.7102 25.0072 92.123 25.0072C92.4429 25.0072 92.7555 25.0613 93.0605 25.1702C93.3676 25.2799 93.6384 25.4522 93.8721 25.6859H93.8711C94.1123 25.9128 94.3091 26.2072 94.4609 26.5687L94.5146 26.7054C94.633 27.0317 94.6981 27.4089 94.7109 27.8363L94.7725 28.7191C94.7921 29.0473 94.8103 29.4093 94.8281 29.805L94.877 30.9603C94.8912 31.3919 94.9034 31.8698 94.9141 32.3939C94.9354 33.1725 94.9487 34.0689 94.9541 35.0824C94.9573 35.7077 94.4651 36.2224 93.8408 36.2523C93.1728 36.284 92.6136 35.751 92.6123 35.0824C92.6108 34.2764 92.6084 33.559 92.6035 32.93C92.5964 32.0038 92.5892 31.2378 92.582 30.6322L92.5498 28.8792L92.5381 28.6693C92.5083 28.2629 92.4372 27.9445 92.3271 27.7113L92.2686 27.6009C92.1119 27.3284 91.9101 27.2005 91.6631 27.2005C91.5381 27.2005 91.4099 27.2281 91.2783 27.2855L91.1455 27.3529C90.9712 27.4575 90.7924 27.5941 90.6094 27.763C90.4337 27.9318 90.2564 28.1245 90.0801 28.3431L90.0811 28.3441C89.9107 28.5642 89.747 28.7878 89.5908 29.015C89.4342 29.2427 89.2849 29.4636 89.1426 29.6771C89.0043 29.8846 88.882 30.0685 88.7773 30.2288C88.7913 30.538 88.8063 30.8784 88.8203 31.2493C88.8346 31.6273 88.8454 32.0551 88.8525 32.5325L88.8682 33.2923C88.8717 33.5597 88.874 33.8413 88.874 34.137L88.8818 35.1624C88.8845 35.7433 88.4294 36.2223 87.8496 36.2523C87.2256 36.2844 86.7026 35.7867 86.6982 35.1624C86.6953 34.7433 86.6901 34.3478 86.6836 33.9759L86.6592 32.931C86.6378 32.0047 86.6125 31.2383 86.584 30.6331C86.5555 29.9283 86.5202 29.345 86.4775 28.8831V28.8792C86.4589 28.371 86.3832 27.9833 86.2549 27.7113L86.1963 27.6009C86.0396 27.3284 85.8378 27.2005 85.5908 27.2005C85.4179 27.2005 85.2385 27.2564 85.0527 27.3734C84.8641 27.4921 84.671 27.6469 84.4736 27.8372C84.3312 27.9797 84.1906 28.1383 84.0518 28.3128L83.9131 28.4935C83.7284 28.735 83.5504 28.9802 83.3799 29.2288C83.209 29.478 83.0489 29.7169 82.8994 29.9447C82.7539 30.1664 82.6246 30.3607 82.5127 30.5286L82.5918 35.1126C82.6021 35.7183 82.1294 36.2228 81.5244 36.2533C80.894 36.2848 80.3616 35.7905 80.3457 35.1595L80.1104 25.7855C80.0952 25.1792 80.5466 24.6624 81.1494 24.596Z" fill="#222222" stroke="#222222" stroke-width="0.108515"/>
<mask id="path-10-outside-2_70_1760" maskUnits="userSpaceOnUse" x="51.9551" y="0.690063" width="49" height="18" fill="black">
<rect fill="white" x="51.9551" y="0.690063" width="49" height="18"/>
<path d="M62.6918 16.4879C62.7159 17.0022 62.3247 17.4415 61.8111 17.4768L54.3759 17.9884C53.6355 18.0394 53.0061 17.4541 53.0032 16.712L52.9585 5.38539C52.9566 4.89506 53.3397 4.48944 53.8294 4.46342V4.46342C54.3574 4.43537 54.8002 4.85724 54.7978 5.38597L54.7487 16.1283L61.6725 15.5884C62.2052 15.5469 62.6667 15.9542 62.6918 16.4879V16.4879Z"/>
<path d="M66.84 5.313C66.84 5.48552 66.8043 5.64912 66.7329 5.80379C66.6675 5.95846 66.5753 6.09232 66.4563 6.20535C66.3433 6.31838 66.2094 6.40761 66.0548 6.47305C65.9001 6.53849 65.7335 6.57121 65.555 6.57121C65.3825 6.57121 65.2189 6.53849 65.0642 6.47305C64.9155 6.40761 64.7817 6.31838 64.6627 6.20535C64.5497 6.09232 64.4604 5.95846 64.395 5.80379C64.3295 5.64912 64.2968 5.48552 64.2968 5.313C64.2968 5.13453 64.3295 4.96796 64.395 4.81328C64.4604 4.65861 64.5497 4.52476 64.6627 4.41173C64.7817 4.29275 64.9155 4.20054 65.0642 4.1351C65.2189 4.06371 65.3825 4.02802 65.555 4.02802C65.7335 4.02802 65.9001 4.06371 66.0548 4.1351C66.2094 4.20054 66.3433 4.29275 66.4563 4.41173C66.5753 4.52476 66.6675 4.65861 66.7329 4.81328C66.8043 4.96796 66.84 5.13453 66.84 5.313ZM65.446 8.49173C65.9746 8.4713 66.4113 8.90033 66.3995 9.42918C66.3887 9.91151 66.3779 10.3688 66.3671 10.8009C66.3552 11.5089 66.3433 12.1543 66.3314 12.7373C66.3195 13.3203 66.3076 13.8438 66.2957 14.3079C66.2897 14.7659 66.2838 15.1675 66.2778 15.5125C66.2696 15.8938 66.2632 16.2373 66.2588 16.5428C66.2515 17.0433 65.8454 17.4489 65.3449 17.4489V17.4489C64.8378 17.4489 64.4295 17.033 64.4393 16.526C64.4474 16.1072 64.4564 15.6504 64.4664 15.1556C64.4783 14.3941 64.4931 13.4631 64.511 12.3626C64.5299 11.4875 64.547 10.4995 64.5621 9.39875C64.5689 8.9095 64.9571 8.51062 65.446 8.49173V8.49173Z"/>
<path d="M71.9115 4.42095C72.4291 4.38714 72.8653 4.80228 72.8572 5.3209L72.8098 8.34698L76.2721 8.23098L76.1383 9.89967L72.792 9.9889L72.7289 16.8643C72.7243 17.3694 72.3199 17.7797 71.815 17.7916V17.7916C71.2822 17.8043 70.8464 17.3703 70.8568 16.8375L70.9894 10.0424L68.762 10.0939C68.2934 10.1048 67.9104 9.72236 67.9206 9.25369V9.25369C67.9301 8.81567 68.2813 8.46198 68.7193 8.44932L71.0251 8.38268L71.0816 5.29078C71.09 4.82917 71.4508 4.45105 71.9115 4.42095V4.42095Z"/>
<path d="M80.5851 4.42095C81.1027 4.38714 81.539 4.80228 81.5309 5.3209L81.4835 8.34698L84.0173 8.26209C84.5121 8.24551 84.9111 8.66349 84.8715 9.15702V9.15702C84.8376 9.57938 84.4907 9.90823 84.0671 9.91953L81.4656 9.9889L81.4025 16.8643C81.3979 17.3694 80.9935 17.7797 80.4886 17.7916V17.7916C79.9559 17.8043 79.52 17.3703 79.5304 16.8375L79.6631 10.0424L76.5755 10.1138L76.6112 8.47191L79.6988 8.38268L79.7552 5.29078C79.7637 4.82917 80.1244 4.45105 80.5851 4.42095V4.42095Z"/>
<path d="M89.9747 16.8559C89.9159 17.3059 89.5228 17.6595 89.0839 17.5444C88.9665 17.5137 88.8543 17.4759 88.7472 17.4311C88.4259 17.2943 88.1404 17.1188 87.8905 16.9046C87.6466 16.6845 87.4354 16.4346 87.257 16.155C87.0844 15.8754 86.9387 15.5929 86.8197 15.3073C86.5342 14.6291 86.3557 13.8617 86.2843 13.005L86.5059 2.59934C86.5166 2.09406 86.9293 1.69006 87.4347 1.69006V1.69006C87.958 1.69006 88.3782 2.12212 88.3627 2.64522C88.3421 3.34075 88.3216 3.99502 88.301 4.60804C88.2772 5.48849 88.2564 6.29161 88.2385 7.01738C88.2207 7.73721 88.2028 8.38268 88.185 8.95378C88.1731 9.52488 88.1612 10.0276 88.1493 10.4618C88.1255 11.4851 88.1077 12.2912 88.0958 12.8801C88.1077 13.4334 88.188 13.9271 88.3367 14.3614C88.3962 14.5458 88.4735 14.7273 88.5687 14.9057C88.6698 15.0842 88.7888 15.2448 88.9256 15.3876C89.0684 15.5304 89.235 15.6464 89.4254 15.7356V15.7356C89.7673 15.8807 90.0616 16.1907 90.0135 16.559L89.9747 16.8559Z"/>
<path d="M95.761 16.387C96.0763 16.387 96.3887 16.3394 96.698 16.2443C97.0074 16.1431 97.2929 16.0004 97.5547 15.8159C97.8164 15.6256 98.0425 15.3906 98.2328 15.111C98.2806 15.043 98.3252 14.9723 98.3666 14.899C98.5914 14.5012 99.0154 14.2099 99.4633 14.3004V14.3004C99.956 14.4 100.261 14.9079 100.035 15.3568C99.929 15.567 99.8102 15.7676 99.6785 15.9587C99.3751 16.3989 99.0211 16.7767 98.6166 17.092C98.212 17.4073 97.7658 17.6512 97.278 17.8237C96.7962 17.9962 96.2905 18.0825 95.761 18.0825C94.9758 18.0825 94.2797 17.9635 93.6729 17.7256C93.0661 17.4876 92.5545 17.1515 92.1381 16.7172C91.7217 16.2829 91.4034 15.7594 91.1833 15.1467C90.9691 14.5339 90.862 13.8498 90.862 13.0943C90.862 12.3507 90.987 11.6576 91.2368 11.0151C91.4926 10.3667 91.8407 9.80448 92.2809 9.32857C92.7211 8.85265 93.2387 8.47786 93.8336 8.20421C94.4285 7.93055 95.071 7.79373 95.761 7.79373C96.3797 7.79373 96.9627 7.91568 97.51 8.15959C98.0574 8.39755 98.5422 8.73069 98.9646 9.15902C99.3869 9.5814 99.735 10.0811 100.009 10.6582C100.131 10.9157 100.233 11.1827 100.315 11.4591C100.488 12.0461 100.048 12.6033 99.443 12.6934L92.7984 13.6832C92.8401 14.1056 92.9442 14.4863 93.1108 14.8254C93.2773 15.1586 93.4885 15.4412 93.7443 15.6732C94.0061 15.9052 94.3065 16.0836 94.6456 16.2086C94.9906 16.3276 95.3625 16.387 95.761 16.387ZM98.2239 11.381L98.1704 11.2114C97.9443 10.6225 97.632 10.1614 97.2334 9.82828C96.8408 9.49514 96.35 9.32857 95.761 9.32857C95.5112 9.32857 95.2375 9.37318 94.9401 9.46242C94.6426 9.5457 94.3541 9.69145 94.0745 9.89967C93.7949 10.1079 93.5421 10.3875 93.316 10.7385C93.0959 11.0835 92.9412 11.5148 92.852 12.0324L98.2239 11.381Z"/>
</mask>
<path d="M62.6918 16.4879C62.7159 17.0022 62.3247 17.4415 61.8111 17.4768L54.3759 17.9884C53.6355 18.0394 53.0061 17.4541 53.0032 16.712L52.9585 5.38539C52.9566 4.89506 53.3397 4.48944 53.8294 4.46342V4.46342C54.3574 4.43537 54.8002 4.85724 54.7978 5.38597L54.7487 16.1283L61.6725 15.5884C62.2052 15.5469 62.6667 15.9542 62.6918 16.4879V16.4879Z" fill="#222222"/>
<path d="M66.84 5.313C66.84 5.48552 66.8043 5.64912 66.7329 5.80379C66.6675 5.95846 66.5753 6.09232 66.4563 6.20535C66.3433 6.31838 66.2094 6.40761 66.0548 6.47305C65.9001 6.53849 65.7335 6.57121 65.555 6.57121C65.3825 6.57121 65.2189 6.53849 65.0642 6.47305C64.9155 6.40761 64.7817 6.31838 64.6627 6.20535C64.5497 6.09232 64.4604 5.95846 64.395 5.80379C64.3295 5.64912 64.2968 5.48552 64.2968 5.313C64.2968 5.13453 64.3295 4.96796 64.395 4.81328C64.4604 4.65861 64.5497 4.52476 64.6627 4.41173C64.7817 4.29275 64.9155 4.20054 65.0642 4.1351C65.2189 4.06371 65.3825 4.02802 65.555 4.02802C65.7335 4.02802 65.9001 4.06371 66.0548 4.1351C66.2094 4.20054 66.3433 4.29275 66.4563 4.41173C66.5753 4.52476 66.6675 4.65861 66.7329 4.81328C66.8043 4.96796 66.84 5.13453 66.84 5.313ZM65.446 8.49173C65.9746 8.4713 66.4113 8.90033 66.3995 9.42918C66.3887 9.91151 66.3779 10.3688 66.3671 10.8009C66.3552 11.5089 66.3433 12.1543 66.3314 12.7373C66.3195 13.3203 66.3076 13.8438 66.2957 14.3079C66.2897 14.7659 66.2838 15.1675 66.2778 15.5125C66.2696 15.8938 66.2632 16.2373 66.2588 16.5428C66.2515 17.0433 65.8454 17.4489 65.3449 17.4489V17.4489C64.8378 17.4489 64.4295 17.033 64.4393 16.526C64.4474 16.1072 64.4564 15.6504 64.4664 15.1556C64.4783 14.3941 64.4931 13.4631 64.511 12.3626C64.5299 11.4875 64.547 10.4995 64.5621 9.39875C64.5689 8.9095 64.9571 8.51062 65.446 8.49173V8.49173Z" fill="#222222"/>
<path d="M71.9115 4.42095C72.4291 4.38714 72.8653 4.80228 72.8572 5.3209L72.8098 8.34698L76.2721 8.23098L76.1383 9.89967L72.792 9.9889L72.7289 16.8643C72.7243 17.3694 72.3199 17.7797 71.815 17.7916V17.7916C71.2822 17.8043 70.8464 17.3703 70.8568 16.8375L70.9894 10.0424L68.762 10.0939C68.2934 10.1048 67.9104 9.72236 67.9206 9.25369V9.25369C67.9301 8.81567 68.2813 8.46198 68.7193 8.44932L71.0251 8.38268L71.0816 5.29078C71.09 4.82917 71.4508 4.45105 71.9115 4.42095V4.42095Z" fill="#222222"/>
<path d="M80.5851 4.42095C81.1027 4.38714 81.539 4.80228 81.5309 5.3209L81.4835 8.34698L84.0173 8.26209C84.5121 8.24551 84.9111 8.66349 84.8715 9.15702V9.15702C84.8376 9.57938 84.4907 9.90823 84.0671 9.91953L81.4656 9.9889L81.4025 16.8643C81.3979 17.3694 80.9935 17.7797 80.4886 17.7916V17.7916C79.9559 17.8043 79.52 17.3703 79.5304 16.8375L79.6631 10.0424L76.5755 10.1138L76.6112 8.47191L79.6988 8.38268L79.7552 5.29078C79.7637 4.82917 80.1244 4.45105 80.5851 4.42095V4.42095Z" fill="#222222"/>
<path d="M89.9747 16.8559C89.9159 17.3059 89.5228 17.6595 89.0839 17.5444C88.9665 17.5137 88.8543 17.4759 88.7472 17.4311C88.4259 17.2943 88.1404 17.1188 87.8905 16.9046C87.6466 16.6845 87.4354 16.4346 87.257 16.155C87.0844 15.8754 86.9387 15.5929 86.8197 15.3073C86.5342 14.6291 86.3557 13.8617 86.2843 13.005L86.5059 2.59934C86.5166 2.09406 86.9293 1.69006 87.4347 1.69006V1.69006C87.958 1.69006 88.3782 2.12212 88.3627 2.64522C88.3421 3.34075 88.3216 3.99502 88.301 4.60804C88.2772 5.48849 88.2564 6.29161 88.2385 7.01738C88.2207 7.73721 88.2028 8.38268 88.185 8.95378C88.1731 9.52488 88.1612 10.0276 88.1493 10.4618C88.1255 11.4851 88.1077 12.2912 88.0958 12.8801C88.1077 13.4334 88.188 13.9271 88.3367 14.3614C88.3962 14.5458 88.4735 14.7273 88.5687 14.9057C88.6698 15.0842 88.7888 15.2448 88.9256 15.3876C89.0684 15.5304 89.235 15.6464 89.4254 15.7356V15.7356C89.7673 15.8807 90.0616 16.1907 90.0135 16.559L89.9747 16.8559Z" fill="#222222"/>
<path d="M95.761 16.387C96.0763 16.387 96.3887 16.3394 96.698 16.2443C97.0074 16.1431 97.2929 16.0004 97.5547 15.8159C97.8164 15.6256 98.0425 15.3906 98.2328 15.111C98.2806 15.043 98.3252 14.9723 98.3666 14.899C98.5914 14.5012 99.0154 14.2099 99.4633 14.3004V14.3004C99.956 14.4 100.261 14.9079 100.035 15.3568C99.929 15.567 99.8102 15.7676 99.6785 15.9587C99.3751 16.3989 99.0211 16.7767 98.6166 17.092C98.212 17.4073 97.7658 17.6512 97.278 17.8237C96.7962 17.9962 96.2905 18.0825 95.761 18.0825C94.9758 18.0825 94.2797 17.9635 93.6729 17.7256C93.0661 17.4876 92.5545 17.1515 92.1381 16.7172C91.7217 16.2829 91.4034 15.7594 91.1833 15.1467C90.9691 14.5339 90.862 13.8498 90.862 13.0943C90.862 12.3507 90.987 11.6576 91.2368 11.0151C91.4926 10.3667 91.8407 9.80448 92.2809 9.32857C92.7211 8.85265 93.2387 8.47786 93.8336 8.20421C94.4285 7.93055 95.071 7.79373 95.761 7.79373C96.3797 7.79373 96.9627 7.91568 97.51 8.15959C98.0574 8.39755 98.5422 8.73069 98.9646 9.15902C99.3869 9.5814 99.735 10.0811 100.009 10.6582C100.131 10.9157 100.233 11.1827 100.315 11.4591C100.488 12.0461 100.048 12.6033 99.443 12.6934L92.7984 13.6832C92.8401 14.1056 92.9442 14.4863 93.1108 14.8254C93.2773 15.1586 93.4885 15.4412 93.7443 15.6732C94.0061 15.9052 94.3065 16.0836 94.6456 16.2086C94.9906 16.3276 95.3625 16.387 95.761 16.387ZM98.2239 11.381L98.1704 11.2114C97.9443 10.6225 97.632 10.1614 97.2334 9.82828C96.8408 9.49514 96.35 9.32857 95.761 9.32857C95.5112 9.32857 95.2375 9.37318 94.9401 9.46242C94.6426 9.5457 94.3541 9.69145 94.0745 9.89967C93.7949 10.1079 93.5421 10.3875 93.316 10.7385C93.0959 11.0835 92.9412 11.5148 92.852 12.0324L98.2239 11.381Z" fill="#222222"/>
<path d="M62.6918 16.4879C62.7159 17.0022 62.3247 17.4415 61.8111 17.4768L54.3759 17.9884C53.6355 18.0394 53.0061 17.4541 53.0032 16.712L52.9585 5.38539C52.9566 4.89506 53.3397 4.48944 53.8294 4.46342V4.46342C54.3574 4.43537 54.8002 4.85724 54.7978 5.38597L54.7487 16.1283L61.6725 15.5884C62.2052 15.5469 62.6667 15.9542 62.6918 16.4879V16.4879Z" stroke="#222222" stroke-width="0.347247" mask="url(#path-10-outside-2_70_1760)"/>
<path d="M66.84 5.313C66.84 5.48552 66.8043 5.64912 66.7329 5.80379C66.6675 5.95846 66.5753 6.09232 66.4563 6.20535C66.3433 6.31838 66.2094 6.40761 66.0548 6.47305C65.9001 6.53849 65.7335 6.57121 65.555 6.57121C65.3825 6.57121 65.2189 6.53849 65.0642 6.47305C64.9155 6.40761 64.7817 6.31838 64.6627 6.20535C64.5497 6.09232 64.4604 5.95846 64.395 5.80379C64.3295 5.64912 64.2968 5.48552 64.2968 5.313C64.2968 5.13453 64.3295 4.96796 64.395 4.81328C64.4604 4.65861 64.5497 4.52476 64.6627 4.41173C64.7817 4.29275 64.9155 4.20054 65.0642 4.1351C65.2189 4.06371 65.3825 4.02802 65.555 4.02802C65.7335 4.02802 65.9001 4.06371 66.0548 4.1351C66.2094 4.20054 66.3433 4.29275 66.4563 4.41173C66.5753 4.52476 66.6675 4.65861 66.7329 4.81328C66.8043 4.96796 66.84 5.13453 66.84 5.313ZM65.446 8.49173C65.9746 8.4713 66.4113 8.90033 66.3995 9.42918C66.3887 9.91151 66.3779 10.3688 66.3671 10.8009C66.3552 11.5089 66.3433 12.1543 66.3314 12.7373C66.3195 13.3203 66.3076 13.8438 66.2957 14.3079C66.2897 14.7659 66.2838 15.1675 66.2778 15.5125C66.2696 15.8938 66.2632 16.2373 66.2588 16.5428C66.2515 17.0433 65.8454 17.4489 65.3449 17.4489V17.4489C64.8378 17.4489 64.4295 17.033 64.4393 16.526C64.4474 16.1072 64.4564 15.6504 64.4664 15.1556C64.4783 14.3941 64.4931 13.4631 64.511 12.3626C64.5299 11.4875 64.547 10.4995 64.5621 9.39875C64.5689 8.9095 64.9571 8.51062 65.446 8.49173V8.49173Z" stroke="#222222" stroke-width="0.347247" mask="url(#path-10-outside-2_70_1760)"/>
<path d="M71.9115 4.42095C72.4291 4.38714 72.8653 4.80228 72.8572 5.3209L72.8098 8.34698L76.2721 8.23098L76.1383 9.89967L72.792 9.9889L72.7289 16.8643C72.7243 17.3694 72.3199 17.7797 71.815 17.7916V17.7916C71.2822 17.8043 70.8464 17.3703 70.8568 16.8375L70.9894 10.0424L68.762 10.0939C68.2934 10.1048 67.9104 9.72236 67.9206 9.25369V9.25369C67.9301 8.81567 68.2813 8.46198 68.7193 8.44932L71.0251 8.38268L71.0816 5.29078C71.09 4.82917 71.4508 4.45105 71.9115 4.42095V4.42095Z" stroke="#222222" stroke-width="0.347247" mask="url(#path-10-outside-2_70_1760)"/>
<path d="M80.5851 4.42095C81.1027 4.38714 81.539 4.80228 81.5309 5.3209L81.4835 8.34698L84.0173 8.26209C84.5121 8.24551 84.9111 8.66349 84.8715 9.15702V9.15702C84.8376 9.57938 84.4907 9.90823 84.0671 9.91953L81.4656 9.9889L81.4025 16.8643C81.3979 17.3694 80.9935 17.7797 80.4886 17.7916V17.7916C79.9559 17.8043 79.52 17.3703 79.5304 16.8375L79.6631 10.0424L76.5755 10.1138L76.6112 8.47191L79.6988 8.38268L79.7552 5.29078C79.7637 4.82917 80.1244 4.45105 80.5851 4.42095V4.42095Z" stroke="#222222" stroke-width="0.347247" mask="url(#path-10-outside-2_70_1760)"/>
<path d="M89.9747 16.8559C89.9159 17.3059 89.5228 17.6595 89.0839 17.5444C88.9665 17.5137 88.8543 17.4759 88.7472 17.4311C88.4259 17.2943 88.1404 17.1188 87.8905 16.9046C87.6466 16.6845 87.4354 16.4346 87.257 16.155C87.0844 15.8754 86.9387 15.5929 86.8197 15.3073C86.5342 14.6291 86.3557 13.8617 86.2843 13.005L86.5059 2.59934C86.5166 2.09406 86.9293 1.69006 87.4347 1.69006V1.69006C87.958 1.69006 88.3782 2.12212 88.3627 2.64522C88.3421 3.34075 88.3216 3.99502 88.301 4.60804C88.2772 5.48849 88.2564 6.29161 88.2385 7.01738C88.2207 7.73721 88.2028 8.38268 88.185 8.95378C88.1731 9.52488 88.1612 10.0276 88.1493 10.4618C88.1255 11.4851 88.1077 12.2912 88.0958 12.8801C88.1077 13.4334 88.188 13.9271 88.3367 14.3614C88.3962 14.5458 88.4735 14.7273 88.5687 14.9057C88.6698 15.0842 88.7888 15.2448 88.9256 15.3876C89.0684 15.5304 89.235 15.6464 89.4254 15.7356V15.7356C89.7673 15.8807 90.0616 16.1907 90.0135 16.559L89.9747 16.8559Z" stroke="#222222" stroke-width="0.347247" mask="url(#path-10-outside-2_70_1760)"/>
<path d="M95.761 16.387C96.0763 16.387 96.3887 16.3394 96.698 16.2443C97.0074 16.1431 97.2929 16.0004 97.5547 15.8159C97.8164 15.6256 98.0425 15.3906 98.2328 15.111C98.2806 15.043 98.3252 14.9723 98.3666 14.899C98.5914 14.5012 99.0154 14.2099 99.4633 14.3004V14.3004C99.956 14.4 100.261 14.9079 100.035 15.3568C99.929 15.567 99.8102 15.7676 99.6785 15.9587C99.3751 16.3989 99.0211 16.7767 98.6166 17.092C98.212 17.4073 97.7658 17.6512 97.278 17.8237C96.7962 17.9962 96.2905 18.0825 95.761 18.0825C94.9758 18.0825 94.2797 17.9635 93.6729 17.7256C93.0661 17.4876 92.5545 17.1515 92.1381 16.7172C91.7217 16.2829 91.4034 15.7594 91.1833 15.1467C90.9691 14.5339 90.862 13.8498 90.862 13.0943C90.862 12.3507 90.987 11.6576 91.2368 11.0151C91.4926 10.3667 91.8407 9.80448 92.2809 9.32857C92.7211 8.85265 93.2387 8.47786 93.8336 8.20421C94.4285 7.93055 95.071 7.79373 95.761 7.79373C96.3797 7.79373 96.9627 7.91568 97.51 8.15959C98.0574 8.39755 98.5422 8.73069 98.9646 9.15902C99.3869 9.5814 99.735 10.0811 100.009 10.6582C100.131 10.9157 100.233 11.1827 100.315 11.4591C100.488 12.0461 100.048 12.6033 99.443 12.6934L92.7984 13.6832C92.8401 14.1056 92.9442 14.4863 93.1108 14.8254C93.2773 15.1586 93.4885 15.4412 93.7443 15.6732C94.0061 15.9052 94.3065 16.0836 94.6456 16.2086C94.9906 16.3276 95.3625 16.387 95.761 16.387ZM98.2239 11.381L98.1704 11.2114C97.9443 10.6225 97.632 10.1614 97.2334 9.82828C96.8408 9.49514 96.35 9.32857 95.761 9.32857C95.5112 9.32857 95.2375 9.37318 94.9401 9.46242C94.6426 9.5457 94.3541 9.69145 94.0745 9.89967C93.7949 10.1079 93.5421 10.3875 93.316 10.7385C93.0959 11.0835 92.9412 11.5148 92.852 12.0324L98.2239 11.381Z" stroke="#222222" stroke-width="0.347247" mask="url(#path-10-outside-2_70_1760)"/>
<rect x="102.593" y="6.04434" width="12.1348" height="12.1348" rx="6.06742" fill="#F2411F"/>
<path d="M109.395 10.1823H111.604" stroke="white" stroke-width="0.455056" stroke-linecap="round" stroke-linejoin="round"/>
<path d="M105.718 10.1824H107.926" stroke="white" stroke-width="0.455056" stroke-linecap="round" stroke-linejoin="round"/>
<path d="M109.395 13.122H111.604" stroke="white" stroke-width="0.455056" stroke-linecap="round" stroke-linejoin="round"/>
<path d="M109.395 14.9603H111.604" stroke="white" stroke-width="0.455056" stroke-linecap="round" stroke-linejoin="round"/>
<path d="M110.508 11.2836V9.07809" stroke="white" stroke-width="0.455056" stroke-linecap="round" stroke-linejoin="round"/>
<path d="M105.718 15.1455L107.926 12.94" stroke="white" stroke-width="0.455056" stroke-linecap="round" stroke-linejoin="round"/>
<path d="M107.926 15.1455L105.718 12.94" stroke="white" stroke-width="0.455056" stroke-linecap="round" stroke-linejoin="round"/>
<rect x="114.728" y="6.04443" width="12.1348" height="12.1348" rx="6.06742" fill="#FBBA18"/>
<g clip-path="url(#clip0_70_1760)">
<path d="M118.065 10.2916V9.98827C118.065 9.65318 118.337 9.38153 118.672 9.38153H120.796M123.526 10.2916V9.98827C123.526 9.65318 123.254 9.38153 122.919 9.38153H120.796M120.796 9.38153V14.8422M121.402 14.8422H120.189" stroke="white" stroke-width="0.606741" stroke-linecap="round" stroke-linejoin="round"/>
</g>
<rect x="126.863" y="6.04443" width="12.1348" height="12.1348" rx="6.06742" fill="#9FC836"/>
<g clip-path="url(#clip1_70_1760)">
<path d="M131.717 9.07816C131.047 9.07816 130.504 9.62145 130.504 10.2916V11.246C130.504 11.4758 130.374 11.6859 130.168 11.7887L130.065 11.8405C129.962 11.8919 129.897 11.997 129.897 12.1119C129.897 12.2268 129.962 12.3318 130.065 12.3832L130.168 12.435C130.374 12.5378 130.504 12.7479 130.504 12.9777V13.9321C130.504 14.6023 131.047 15.1456 131.717 15.1456H132.172C132.34 15.1456 132.476 15.0097 132.476 14.8422C132.476 14.6747 132.34 14.5388 132.172 14.5388H131.717C131.382 14.5388 131.11 14.2672 131.11 13.9321V12.9777C131.11 12.6469 130.976 12.3365 130.747 12.1119C130.976 11.8872 131.11 11.5768 131.11 11.246V10.2916C131.11 9.95654 131.382 9.6849 131.717 9.6849H132.172C132.34 9.6849 132.476 9.54907 132.476 9.38153C132.476 9.21398 132.34 9.07816 132.172 9.07816H131.717Z" fill="white"/>
<path d="M134.144 9.07816C134.814 9.07816 135.358 9.62145 135.358 10.2916V11.246C135.358 11.4758 135.487 11.6859 135.693 11.7887L135.797 11.8405C135.899 11.8919 135.964 11.997 135.964 12.1119C135.964 12.2268 135.899 12.3318 135.797 12.3832L135.693 12.435C135.487 12.5378 135.358 12.7479 135.358 12.9777V13.9321C135.358 14.6023 134.814 15.1456 134.144 15.1456H133.689C133.521 15.1456 133.386 15.0097 133.386 14.8422C133.386 14.6747 133.521 14.5388 133.689 14.5388H134.144C134.479 14.5388 134.751 14.2672 134.751 13.9321V12.9777C134.751 12.6469 134.885 12.3365 135.114 12.1119C134.885 11.8872 134.751 11.5768 134.751 11.246V10.2916C134.751 9.95654 134.479 9.6849 134.144 9.6849H133.689C133.521 9.6849 133.386 9.54907 133.386 9.38153C133.386 9.21398 133.521 9.07816 133.689 9.07816H134.144Z" fill="white"/>
</g>
<rect x="138.998" y="6.04443" width="12.1348" height="12.1348" rx="6.06742" fill="#3AC8EE"/>
<path d="M148.099 13.5499V9.88822C148.099 9.52417 147.802 9.25417 147.441 9.28451H147.422C146.785 9.33912 145.818 9.66372 145.278 10.0035L145.226 10.0369C145.138 10.0915 144.992 10.0915 144.904 10.0369L144.829 9.99137C144.289 9.65462 143.324 9.33305 142.687 9.28148C142.326 9.25114 142.031 9.52417 142.031 9.88519V13.5499C142.031 13.8411 142.268 14.1142 142.559 14.1506L142.647 14.1627C143.306 14.2507 144.322 14.5844 144.904 14.9029L144.917 14.909C144.998 14.9545 145.129 14.9545 145.208 14.909C145.79 14.5874 146.81 14.2507 147.471 14.1627L147.571 14.1506C147.862 14.1142 148.099 13.8411 148.099 13.5499Z" stroke="white" stroke-width="0.455056" stroke-linecap="round" stroke-linejoin="round"/>
<path d="M145.065 10.137V14.6876" stroke="white" stroke-width="0.455056" stroke-linecap="round" stroke-linejoin="round"/>
<path d="M143.776 11.0471H143.093" stroke="white" stroke-width="0.455056" stroke-linecap="round" stroke-linejoin="round"/>
<path d="M144.003 11.9572H143.093" stroke="white" stroke-width="0.455056" stroke-linecap="round" stroke-linejoin="round"/>
<defs>
<clipPath id="clip0_70_1760">
<rect width="7.2809" height="7.2809" fill="white" transform="translate(117.155 8.47144)"/>
</clipPath>
<clipPath id="clip1_70_1760">
<rect width="7.2809" height="7.2809" fill="white" transform="translate(129.29 8.47144)"/>
</clipPath>
</defs>
</svg>
